<?xml version="1.0" standalone="no"?>
<!DOCTYPE svg PUBLIC "-//W3C//DTD SVG 20010904//EN"
 "http://www.w3.org/TR/2001/REC-SVG-20010904/DTD/svg10.dtd">
<svg version="1.0" xmlns="http://www.w3.org/2000/svg"
 width="624.000000pt" height="392.000000pt" viewBox="0 0 624.000000 392.000000"
 preserveAspectRatio="xMidYMid meet">

<g transform="translate(0.000000,392.000000) scale(0.100000,-0.100000)"
fill="#646464" stroke="none">
<path d="M3655 2814 c-193 -29 -323 -68 -598 -177 l-228 -90 -27 25 c-66 61
-186 125 -289 153 -92 26 -263 31 -364 11 -268 -54 -480 -258 -559 -537 -27
-98 -37 -282 -20 -386 60 -374 374 -633 800 -660 170 -10 333 29 610 147 363
155 645 238 889 261 191 18 396 -21 511 -97 29 -19 55 -34 59 -34 9 0 68 71
110 133 57 84 112 214 133 316 26 125 21 301 -12 406 -46 149 -152 286 -294
379 -164 109 -299 147 -531 151 -88 2 -173 1 -190 -1z m-1499 -313 c48 -22
114 -78 114 -96 0 -24 -19 -26 -58 -6 -22 11 -60 25 -85 31 -39 10 -51 9 -91
-9 -59 -26 -82 -71 -66 -129 16 -61 57 -98 267 -245 l83 -58 112 102 c165 149
205 200 194 245 -9 36 -50 42 -101 15 -72 -38 -153 -128 -219 -246 -16 -27
-30 -52 -32 -54 -4 -5 -124 81 -124 89 0 12 71 124 112 178 100 129 207 196
319 196 59 1 72 -3 110 -29 58 -41 83 -87 83 -150 0 -88 -28 -129 -201 -302
-120 -119 -167 -173 -191 -220 -18 -34 -37 -65 -42 -68 -18 -11 -42 9 -66 57
-34 68 -89 120 -217 207 -129 88 -182 144 -203 218 -54 186 129 353 302 274z
m1864 -94 c14 -1 33 3 43 8 16 7 18 3 15 -41 l-3 -49 -40 3 c-22 1 -66 3 -97
4 l-58 2 0 33 c0 41 23 55 75 47 22 -4 51 -7 65 -7z m20 -135 c30 -31 57 -105
40 -110 -6 -2 1 -17 15 -34 24 -28 25 -34 19 -111 l-6 -82 31 32 c16 17 38 57
47 88 11 33 26 60 36 64 9 3 27 22 40 41 13 19 43 48 67 65 35 24 53 30 96 30
69 0 96 -24 118 -105 22 -78 21 -118 -3 -184 -41 -108 -138 -174 -213 -143
-38 16 -84 67 -93 103 -7 29 -20 31 -29 5 -3 -11 -22 -34 -41 -50 -47 -42 -86
-41 -130 3 l-33 33 -23 -24 c-48 -52 -105 -51 -159 1 -22 22 -33 27 -37 18 -2
-8 -17 -28 -32 -46 -28 -31 -28 -32 -9 -44 34 -21 44 -57 25 -87 -13 -20 -24
-25 -60 -25 -34 0 -45 4 -49 19 -2 10 -1 25 4 32 13 21 -20 49 -56 49 -20 0
-48 12 -73 30 l-41 29 -11 -34 c-14 -41 -53 -75 -87 -75 -75 0 -119 69 -136
215 -6 52 -14 95 -18 95 -4 0 -17 -32 -29 -71 -25 -77 -27 -57 17 -246 5 -20
1 -23 -29 -23 -18 0 -43 7 -55 15 -20 14 -21 13 -28 -13 -16 -67 -92 -94 -152
-55 -19 12 -28 14 -30 6 -3 -7 -14 -27 -26 -45 -36 -53 -109 -52 -171 3 -101
88 -90 336 17 396 30 17 92 16 126 -1 33 -18 64 -60 59 -84 -2 -11 8 -22 27
-32 26 -13 32 -25 49 -93 17 -71 20 -77 34 -63 23 22 33 196 17 289 -9 52 -9
74 -1 79 14 9 54 0 83 -18 20 -13 23 -11 39 15 9 15 29 36 45 45 25 15 32 15
63 2 49 -20 63 -50 71 -141 9 -119 24 -178 41 -165 19 16 31 61 48 173 15 108
44 164 101 199 74 45 156 9 159 -69 1 -32 -3 -39 -20 -41 -16 -2 -24 4 -32 28
-10 27 -13 29 -31 18 -56 -35 -77 -194 -33 -255 29 -41 59 -42 94 -5 34 36 46
61 59 124 12 57 50 146 82 191 30 44 75 67 130 67 40 0 54 -5 77 -28z m-1849
-388 c13 -15 18 -47 21 -144 6 -145 21 -191 90 -266 124 -135 272 -103 364 77
42 83 69 45 39 -56 -33 -113 -157 -205 -279 -205 -99 0 -204 63 -266 160 -57
89 -73 157 -74 315 0 77 3 153 7 168 l8 28 37 -29 c20 -17 44 -38 53 -48z"/>
<path d="M3935 2196 c-70 -75 -76 -282 -7 -240 34 21 72 106 72 162 0 39 4 52
15 52 21 0 19 16 -5 40 -27 27 -38 25 -75 -14z"/>
<path d="M4410 2153 c-78 -54 -117 -186 -69 -234 24 -24 51 -19 92 19 32 31
67 99 67 132 l0 23 -24 -22 c-14 -13 -29 -20 -35 -16 -16 9 -13 67 5 93 19 28
1 30 -36 5z"/>
<path d="M2796 1958 c-36 -56 -26 -193 17 -244 33 -37 55 -16 68 66 9 53 8 73
-5 110 -11 32 -12 46 -4 51 18 11 -10 39 -38 39 -13 0 -30 -10 -38 -22z"/>
<path d="M4013 1411 c-13 -11 -23 -27 -23 -38 0 -20 -38 -88 -46 -81 -2 3 3
19 12 37 15 30 15 34 0 49 -13 14 -20 14 -36 4 -10 -6 -26 -9 -34 -6 -9 4 -20
-5 -29 -23 -20 -38 -66 -83 -85 -83 -8 0 0 10 19 23 38 25 48 57 24 77 -24 20
-60 -2 -95 -57 -29 -48 -40 -47 -19 1 9 20 9 29 -1 41 -12 14 -15 14 -37 0
-19 -13 -27 -14 -39 -4 -11 9 -18 9 -26 1 -7 -7 -22 -12 -35 -12 -13 0 -23 -6
-23 -13 0 -15 -50 -90 -56 -84 -2 2 2 20 10 39 9 20 12 38 9 42 -14 14 -32 4
-41 -21 -5 -16 -19 -39 -31 -53 l-22 -25 7 24 c3 14 17 45 30 70 17 31 21 48
14 55 -18 18 -44 -8 -65 -67 -11 -31 -27 -62 -34 -69 -12 -11 -13 -10 -6 7 4
11 9 38 12 61 4 32 2 42 -12 47 -22 9 -46 -5 -84 -50 -17 -21 -40 -47 -51 -58
-21 -21 -27 -45 -11 -45 5 0 11 -9 14 -20 7 -29 24 -25 32 7 6 26 21 42 36 43
4 0 10 -11 13 -25 5 -18 13 -25 32 -25 13 0 27 7 30 15 5 11 10 12 24 3 10 -7
25 -8 36 -3 11 4 29 7 41 6 11 -1 24 2 27 7 3 6 14 8 24 5 13 -3 23 8 40 48
22 53 42 65 22 15 -15 -40 -12 -56 10 -56 12 0 20 7 20 18 0 9 11 31 25 47
l25 30 -10 -29 c-6 -16 -9 -35 -6 -43 7 -17 40 -17 55 1 10 12 16 12 41 -1 22
-11 34 -11 50 -3 11 6 29 8 40 5 13 -4 20 0 26 17 3 13 15 35 26 51 22 31 44
38 28 8 -25 -48 3 -90 38 -57 17 14 19 14 34 -1 15 -14 19 -15 40 -1 21 14 26
14 46 0 19 -13 25 -13 46 1 13 9 30 30 37 47 15 31 29 40 29 16 0 -8 7 -17 16
-20 25 -9 5 -27 -23 -20 -21 6 -24 3 -21 -12 8 -46 98 -18 98 31 0 11 5 26 11
32 7 7 9 19 5 29 -5 14 -15 15 -55 10 -30 -4 -52 -2 -56 4 -13 20 -63 11 -82
-16 -35 -50 -62 -79 -63 -66 0 25 29 69 50 75 16 4 18 9 11 29 -11 30 -30 33
-58 9z m97 -100 c-10 -20 -30 -29 -30 -13 0 4 8 18 17 32 19 27 30 12 13 -19z
m130 24 c0 -9 -6 -12 -16 -8 -13 5 -13 7 -2 14 17 11 18 11 18 -6z m-920 -66
c-9 -15 -15 -18 -23 -10 -7 7 -5 16 8 32 22 24 32 10 15 -22z"/>
<path d="M3485 1370 c-8 -14 3 -30 21 -30 8 0 14 9 14 20 0 21 -24 28 -35 10z"/>
</g>
</svg>
