<?xml version="1.0" standalone="no"?>
<!DOCTYPE svg PUBLIC "-//W3C//DTD SVG 20010904//EN"
 "http://www.w3.org/TR/2001/REC-SVG-20010904/DTD/svg10.dtd">
<svg version="1.0" xmlns="http://www.w3.org/2000/svg"
 width="358.000000pt" height="67.000000pt" viewBox="0 0 358.000000 67.000000"
 preserveAspectRatio="xMidYMid meet">

<g transform="translate(0.000000,67.000000) scale(0.100000,-0.100000)"
fill="#ec271d" stroke="none">
<path d="M413 659 c-217 -36 -392 -214 -368 -375 13 -90 98 -160 222 -184 71
-14 256 -8 314 9 l37 11 36 145 c20 79 36 147 36 150 0 3 -65 5 -145 5 -160 0
-165 -2 -165 -69 0 -31 0 -31 55 -31 62 0 63 -1 43 -75 l-12 -45 -63 0 c-79 0
-127 19 -153 62 -50 83 3 199 118 255 56 28 59 28 275 31 196 3 217 2 217 -13
0 -9 -22 -109 -50 -222 -27 -113 -50 -209 -50 -214 0 -5 40 -9 88 -9 l88 0 60
228 60 227 54 5 54 5 13 50 c7 28 13 53 13 58 0 10 -713 7 -777 -4z"/>
<path d="M1198 528 c-21 -79 -55 -209 -77 -291 l-39 -147 92 0 92 0 28 115 28
115 91 0 92 1 32 54 31 55 -104 0 c-116 0 -113 -3 -93 76 l11 44 143 0 143 0
7 43 c3 23 9 50 11 60 5 16 -10 17 -223 17 l-228 0 -37 -142z"/>
<path d="M2995 573 c-15 -54 -29 -101 -31 -104 -2 -4 -21 2 -41 13 -31 16 -52
19 -113 15 -81 -4 -143 -28 -193 -75 l-28 -27 -24 31 c-13 17 -48 41 -77 54
-101 43 -279 15 -368 -58 l-25 -20 -42 38 c-23 22 -60 44 -85 51 -62 16 -202
6 -260 -19 -104 -46 -186 -160 -175 -244 7 -53 29 -84 80 -110 36 -20 57 -23
147 -23 98 0 109 2 170 32 36 18 73 38 82 45 15 11 22 9 43 -14 49 -53 81 -63
195 -63 118 0 156 10 231 62 45 31 53 33 61 19 16 -29 62 -66 96 -77 52 -17
142 -7 202 23 l52 26 -6 -29 -5 -29 72 0 72 0 69 273 c39 149 72 280 74 290 4
15 -4 17 -70 17 l-75 0 -28 -97z m-1082 -172 c24 -23 25 -87 2 -135 -25 -53
-76 -88 -134 -94 -43 -4 -50 -2 -70 24 -83 105 109 299 202 205z m488 0 c33
-33 36 -64 14 -119 -52 -123 -204 -155 -231 -48 -13 55 47 154 111 182 47 20
74 17 106 -15z m487 13 c54 -37 47 -116 -15 -184 -64 -72 -156 -76 -183 -9
-24 57 24 154 92 188 51 25 76 26 106 5z"/>
<path d="M3295 494 c-100 -26 -155 -68 -155 -118 0 -46 11 -57 92 -96 40 -19
74 -42 76 -51 5 -28 -50 -42 -137 -36 l-77 5 -12 -44 c-7 -24 -12 -49 -12 -54
0 -15 197 -12 255 4 101 26 155 72 155 129 0 41 -53 89 -124 111 -63 20 -71
37 -26 56 28 12 50 11 125 -5 28 -6 32 -3 55 39 13 25 21 48 17 52 -8 9 -204
15 -232 8z"/>
</g>
</svg>
