<?xml version="1.0" standalone="no"?>
<!DOCTYPE svg PUBLIC "-//W3C//DTD SVG 20010904//EN"
 "http://www.w3.org/TR/2001/REC-SVG-20010904/DTD/svg10.dtd">
<svg version="1.0" xmlns="http://www.w3.org/2000/svg"
 width="624.000000pt" height="392.000000pt" viewBox="0 0 624.000000 392.000000"
 preserveAspectRatio="xMidYMid meet">

<g transform="translate(0.000000,392.000000) scale(0.100000,-0.100000)"
fill="#000000" stroke="none">
<path d="M3065 3192 c-72 -35 -125 -112 -125 -183 0 -26 -3 -30 -17 -24 -168
70 -384 -46 -383 -205 1 -49 36 -107 73 -121 l35 -12 -47 -58 c-163 -202 -258
-459 -268 -724 l-6 -140 -86 -21 c-95 -24 -168 -55 -251 -108 -58 -37 -59 -36
23 -55 26 -6 72 -21 102 -32 l55 -20 -29 -58 c-30 -58 -77 -199 -69 -206 2 -2
33 13 68 35 35 21 67 37 70 35 4 -3 10 -20 13 -40 8 -51 63 -154 105 -197 54
-57 90 -70 183 -67 l80 2 57 -55 c31 -31 84 -74 117 -96 62 -41 190 -92 228
-91 12 0 -12 10 -54 23 -88 26 -161 69 -238 141 -53 50 -154 182 -184 242 -15
28 -15 32 -1 37 32 12 137 5 291 -19 227 -36 503 -58 674 -53 169 4 162 12 78
-98 -104 -138 -220 -220 -362 -259 -31 -8 -42 -14 -27 -14 43 -1 160 46 230
93 37 24 102 82 144 128 l78 84 51 -7 c125 -18 328 -7 430 23 44 13 46 20 10
39 -23 11 -94 57 -156 100 -5 4 14 35 42 69 47 57 101 146 101 169 0 5 -27 0
-61 -10 -33 -10 -64 -19 -67 -19 -4 0 -7 53 -7 117 0 135 -11 166 -82 218 -40
30 -40 30 -47 115 -29 349 -190 668 -435 862 -41 33 -90 67 -108 76 -42 20
-38 33 18 53 83 31 100 90 41 144 -31 29 -77 40 -127 31 l-35 -7 20 33 c25 41
26 89 2 118 -25 31 -95 37 -147 12z m115 -401 c14 -10 38 -42 54 -72 20 -38
26 -45 22 -24 -4 17 -13 42 -21 58 -18 36 -3 34 29 -4 25 -30 49 -95 62 -174
3 -23 18 -53 34 -70 38 -42 48 -64 47 -112 0 -30 -4 -43 -13 -43 -8 0 -14 -10
-14 -21 0 -17 -5 -20 -21 -16 -21 6 -22 4 -17 -106 4 -97 9 -120 33 -170 28
-57 69 -98 113 -111 32 -10 27 -23 -13 -36 -19 -6 -37 -15 -40 -20 -3 -5 13
-3 36 6 48 16 122 21 160 9 78 -24 129 -108 137 -222 l5 -72 -29 -8 c-62 -17
-569 -6 -664 15 -25 6 -106 13 -180 17 -143 8 -188 18 -125 28 55 9 105 51
105 89 0 29 -2 30 -36 26 -35 -4 -35 -4 -13 12 l22 17 -24 17 c-30 21 -19 21
26 -1 30 -14 35 -22 35 -50 0 -20 5 -33 13 -33 41 0 104 93 75 111 -20 13 -62
11 -77 -3 -10 -11 -11 -10 -5 5 9 24 -38 82 -86 107 -48 25 -65 25 -88 3 -35
-35 -123 -75 -178 -80 -60 -6 -76 -22 -56 -54 10 -16 6 -26 -22 -63 -19 -25
-42 -66 -52 -93 -9 -26 -20 -52 -24 -56 -13 -15 -21 64 -21 207 0 268 69 499
216 721 67 101 85 117 164 149 36 14 65 26 67 26 1 0 -7 -17 -17 -37 -22 -42
-24 -103 -8 -169 10 -39 9 -47 -7 -65 -19 -22 -26 -79 -11 -90 4 -3 -1 -33
-12 -67 -28 -83 -28 -107 2 -97 44 14 77 17 77 8 0 -20 -41 -127 -61 -159 -31
-51 -18 -63 15 -14 29 44 66 140 66 170 0 11 10 20 24 22 18 4 27 -1 35 -19
16 -35 14 -47 -15 -74 -37 -34 -54 -72 -54 -117 0 -94 114 -153 197 -102 37
22 48 52 39 112 -20 130 -22 118 35 178 59 63 99 139 99 191 0 44 9 54 26 31
13 -16 13 -16 14 0 0 24 -40 49 -69 41 -16 -4 -19 -8 -10 -14 31 -19 -55 -74
-101 -64 -15 3 -49 19 -74 36 -32 20 -59 29 -88 29 -36 0 -47 -6 -84 -45 -24
-24 -46 -40 -49 -35 -3 6 -3 15 1 21 3 6 1 14 -5 18 -8 5 -5 16 10 35 19 24
20 31 9 77 -14 57 -7 131 14 165 18 27 60 38 87 23 18 -9 25 -7 48 15 32 30
43 33 34 9 -3 -10 8 3 25 29 51 77 111 95 172 49z m154 -25 c205 -146 378
-425 437 -706 23 -109 37 -362 18 -320 -7 14 -23 48 -36 77 -32 69 -72 94
-170 103 -85 9 -143 41 -176 98 -24 42 -46 140 -47 210 0 46 4 56 34 85 29 27
34 39 34 77 0 48 -20 90 -61 128 -18 17 -27 39 -32 80 -8 66 -39 155 -60 172
-15 12 -21 40 -9 40 4 0 34 -20 68 -44z m-344 -371 c43 -32 95 -49 125 -41 14
4 40 20 59 37 l35 30 -9 -32 c-13 -44 -34 -73 -72 -102 -47 -34 -78 -44 -213
-66 -67 -11 -129 -23 -139 -27 -17 -7 -18 -3 -12 35 9 57 28 92 80 146 51 54
92 60 146 20z m200 -101 c-18 -52 -91 -128 -170 -175 -36 -21 -69 -39 -73 -39
-4 0 -6 17 -6 38 2 30 3 32 6 10 2 -16 9 -28 15 -28 6 0 39 21 74 46 64 45
135 128 149 172 4 13 9 21 12 18 3 -2 -1 -22 -7 -42z m-45 -21 c-35 -55 -122
-133 -148 -133 -20 0 137 155 162 159 2 1 -5 -11 -14 -26z m-173 -103 c2 -22
1 -40 -2 -40 -4 0 -16 18 -29 40 l-22 40 24 0 c22 0 25 -5 29 -40z m-202 -244
c0 -2 -9 -6 -20 -9 -11 -3 -20 -1 -20 4 0 5 9 9 20 9 11 0 20 -2 20 -4z m-82
-161 c-28 -65 -20 -114 22 -127 8 -3 -25 -8 -75 -12 -49 -3 -119 -11 -155 -16
-35 -5 -65 -8 -67 -7 -9 10 51 109 85 140 52 46 74 49 66 7 -6 -29 -5 -30 27
-29 19 0 27 3 19 6 -8 2 -21 7 -29 9 -11 3 -10 9 3 29 16 25 16 25 -13 25 -16
0 -39 9 -52 20 -30 24 -18 35 50 44 25 4 64 17 86 29 l40 23 5 -51 c3 -35 0
-62 -12 -90z m-8 -204 c0 -5 -7 -11 -15 -15 -23 -8 -22 -222 2 -248 15 -17 14
-18 -40 -18 -59 0 -68 5 -42 24 13 9 15 29 13 101 l-3 90 -39 -107 c-21 -60
-42 -108 -47 -108 -7 0 -21 34 -60 144 l-14 39 -7 -39 c-4 -22 -7 -63 -7 -92
-1 -46 2 -54 21 -61 22 -8 22 -8 -7 -23 -17 -9 -41 -19 -55 -23 -25 -8 -25 -8
-6 14 15 16 21 45 27 119 12 149 12 152 -11 152 -29 0 -25 19 7 31 50 19 63 9
95 -73 17 -43 35 -78 39 -78 5 0 9 4 9 9 0 5 14 46 31 90 l31 81 39 0 c21 0
39 -4 39 -9z m150 -8 c3 -2 -3 -9 -13 -14 -15 -9 -17 -27 -17 -135 0 -102 3
-126 15 -130 8 -4 15 -11 15 -16 0 -10 -74 -3 -106 9 -18 7 -18 23 -1 23 22 0
32 228 12 250 -8 9 -15 19 -15 22 0 6 103 -2 110 -9z m171 -13 c13 -8 19 -21
19 -45 0 -40 -15 -47 -24 -10 -8 32 -42 51 -62 34 -27 -22 -16 -54 35 -101 52
-46 68 -81 57 -123 -10 -41 -41 -65 -84 -65 -48 0 -68 16 -76 61 -9 52 5 56
28 7 22 -45 47 -58 71 -38 27 22 17 56 -27 96 -53 47 -67 70 -68 112 0 63 72
103 131 72z m194 -4 l85 -1 0 -42 c0 -47 -14 -58 -24 -19 -7 29 -44 45 -57 25
-5 -8 -9 -69 -9 -136 0 -103 2 -123 15 -123 8 0 15 -4 15 -10 0 -6 -27 -10
-60 -10 -63 0 -71 5 -42 26 14 10 18 33 21 138 l3 126 -25 0 c-18 0 -28 -8
-37 -30 -17 -41 -26 -31 -22 24 4 43 6 45 28 40 13 -3 62 -7 109 -8z m293 -21
c2 -2 2 -20 0 -41 l-4 -39 -12 28 c-9 22 -18 27 -47 27 l-35 0 0 -55 c0 -51 2
-55 24 -55 13 0 30 10 39 23 15 21 16 20 16 -30 1 -29 -3 -53 -9 -53 -5 0 -10
6 -10 14 0 14 -21 26 -46 26 -10 0 -14 -15 -14 -60 l0 -60 35 0 c29 0 37 5 52
33 15 28 18 29 21 11 1 -11 -2 -32 -7 -47 -10 -27 -12 -27 -106 -27 -88 0
-121 10 -76 25 16 5 19 21 25 127 7 108 5 124 -9 134 -9 7 -15 16 -12 21 5 7
167 5 175 -2z m240 -13 c17 -22 8 -70 -20 -100 l-23 -23 25 -47 c14 -26 35
-51 48 -57 29 -13 28 -23 -4 -36 -36 -13 -68 9 -96 66 -30 61 -48 59 -48 -5 0
-39 4 -50 16 -50 35 0 0 -19 -47 -25 -57 -8 -72 -1 -43 19 16 12 19 31 24 122
4 79 2 111 -7 120 -25 24 -12 33 50 37 80 5 109 0 125 -21z m90 -6 c3 -24 0
-27 -20 -24 -26 3 -37 36 -16 49 20 13 33 5 36 -25z m-1494 -28 c-16 -23 -27
-49 -26 -55 2 -7 -2 -13 -8 -13 -21 0 -9 47 21 83 41 50 48 41 13 -15z m1567
-91 c-7 -18 -15 -25 -26 -21 -19 8 -19 9 7 40 25 28 34 20 19 -19z"/>
<path d="M3028 2713 c-35 -38 -45 -60 -52 -118 -7 -66 10 -113 53 -142 42 -29
82 -29 107 -2 10 12 38 35 62 51 38 26 42 33 42 71 -1 79 -60 167 -114 167
-16 0 -13 -4 14 -19 57 -30 101 -143 72 -188 -4 -6 -7 16 -7 49 0 53 -3 62
-28 84 -36 31 -62 30 -92 -1 -35 -34 -36 -120 -2 -157 13 -14 30 -27 38 -30
11 -4 11 -8 2 -18 -17 -18 -75 -5 -107 25 -22 21 -26 32 -26 82 0 66 26 132
61 157 13 9 19 16 13 16 -6 0 -22 -12 -36 -27z m152 -64 c18 -32 4 -71 -23
-67 -39 5 -34 87 5 88 4 0 12 -9 18 -21z"/>
<path d="M2847 2647 c-22 -17 -30 -34 -34 -70 -7 -61 20 -127 51 -127 12 0 30
-3 42 -6 18 -5 23 1 33 40 18 72 14 139 -9 164 -26 28 -48 28 -83 -1z m70 -13
c2 -7 -7 -14 -20 -18 -47 -12 -59 -95 -20 -138 15 -17 14 -18 -5 -18 -49 0
-70 114 -31 164 22 28 68 34 76 10z m9 -49 c4 -8 3 -23 0 -32 -6 -15 -8 -15
-22 -2 -8 9 -12 23 -8 32 8 21 23 22 30 2z"/>
<path d="M3114 1909 c-74 -38 -110 -67 -119 -97 -6 -20 -4 -23 12 -18 10 3 32
8 48 11 l30 5 -27 -11 c-35 -14 -35 -20 3 -48 40 -30 31 -38 -12 -12 -45 27
-65 26 -73 -3 -8 -34 0 -51 42 -80 55 -37 110 -58 160 -59 62 0 75 19 68 100
-3 42 0 76 9 104 18 50 19 111 3 127 -21 21 -83 13 -144 -19z m120 -5 c9 -8
16 -25 15 -37 l0 -22 -9 23 c-5 12 -21 27 -35 32 -14 5 -25 12 -25 15 0 12 40
4 54 -11z"/>
<path d="M3377 1679 c6 -34 -10 -38 -56 -14 -28 14 -29 14 -33 -16 -6 -36 9
-49 20 -18 6 15 11 18 16 11 4 -7 23 -12 42 -12 30 0 34 3 34 26 0 23 3 25 30
19 16 -4 37 -1 47 5 16 10 15 11 -7 6 -14 -2 -42 1 -62 8 l-37 13 6 -28z"/>
<path d="M3620 1456 c0 -24 -3 -51 -6 -60 -4 -11 0 -16 14 -16 25 0 40 18 48
58 7 36 -8 62 -37 62 -16 0 -19 -8 -19 -44z"/>
<path d="M2715 1025 c0 -40 4 -65 11 -65 6 0 9 13 6 31 -4 30 -3 32 22 27 16
-3 26 -1 26 7 0 8 -10 10 -26 7 -25 -5 -26 -3 -22 27 3 18 0 31 -6 31 -7 0
-11 -25 -11 -65z"/>
<path d="M2815 1025 c0 -37 4 -65 10 -65 6 0 10 28 10 65 0 37 -4 65 -10 65
-6 0 -10 -28 -10 -65z"/>
<path d="M2858 1083 c15 -6 16 -50 1 -55 -17 -6 17 -68 37 -68 12 0 10 6 -7
29 -18 24 -19 31 -8 48 15 25 6 53 -18 52 -11 0 -13 -3 -5 -6z"/>
<path d="M2980 1082 c0 -6 5 -23 10 -38 9 -23 8 -26 -8 -22 -14 4 -23 -3 -34
-28 -13 -28 -13 -34 -2 -34 8 0 13 3 13 8 -1 4 -1 15 0 25 2 28 45 18 49 -10
2 -13 9 -23 16 -23 10 0 8 15 -8 59 -21 59 -36 85 -36 63z"/>
<path d="M3075 1025 c0 -37 4 -65 10 -65 6 0 9 20 7 48 l-3 47 35 -40 c20 -22
36 -43 36 -47 0 -5 4 -8 9 -8 5 0 11 29 13 65 2 39 -1 65 -7 65 -6 0 -9 -20
-7 -47 l3 -48 -43 48 c-24 26 -45 47 -48 47 -3 0 -5 -29 -5 -65z"/>
<path d="M3216 1068 c-22 -31 -20 -71 4 -93 11 -10 22 -16 25 -13 3 3 -1 11
-10 18 -20 17 -19 69 2 92 9 10 11 18 5 18 -6 0 -18 -10 -26 -22z"/>
<path d="M3295 1080 c3 -5 8 -10 11 -10 2 0 4 5 4 10 0 6 -5 10 -11 10 -5 0
-7 -4 -4 -10z"/>
<path d="M3357 1072 c-32 -35 -13 -112 26 -112 9 0 9 2 0 8 -25 16 -34 62 -19
93 17 34 15 36 -7 11z"/>
<path d="M3424 1074 c22 -22 21 -90 -1 -103 -10 -6 -13 -11 -7 -11 20 0 44 36
44 68 0 30 -21 62 -41 62 -6 0 -3 -7 5 -16z"/>
<path d="M3285 990 c0 -16 5 -30 11 -30 7 0 14 14 16 30 3 23 1 30 -11 30 -11
0 -16 -9 -16 -30z"/>
<path d="M3058 743 c18 -2 45 -2 60 0 15 2 0 4 -33 4 -33 0 -45 -2 -27 -4z"/>
</g>
</svg>
