<svg width="91" height="81" viewBox="0 0 91 81" fill="none" xmlns="http://www.w3.org/2000/svg">
<path d="M52.683 7.27329C43.8547 8.18717 36.3876 14.049 33.6785 22.1825C32.9372 24.428 32.7889 25.4333 32.6676 29.2585C32.5193 33.8671 32.2498 35.1204 30.5515 39.1806C29.6349 41.3739 29.3115 42.5619 29.2036 44.1416C29.1228 45.5908 29.298 47.0007 29.7832 48.6718L30.1336 49.886L26.6562 53.3457L23.1788 56.8053H21.2109C19.0409 56.8053 18.1109 56.975 16.9787 57.5625C15.9948 58.0717 14.9704 59.1292 14.4448 60.1606C14.0135 61.0222 14 61.1005 14 62.615C14 64.1033 14.027 64.2208 14.4313 65.0694C15.267 66.7796 16.9518 68.0852 18.7848 68.4376L19.5666 68.5813L19.6475 69.1949C19.8496 70.7223 21.2109 72.4848 22.8014 73.2942C25.1601 74.4953 27.9232 74.1428 29.7697 72.3934C31.185 71.0618 31.5758 69.9521 31.6837 67.0538L31.7511 64.9649L35.2015 61.6097L38.6385 58.2675L39.1237 58.4372C41.1185 59.1031 44.7173 59.2075 46.9008 58.6592C48.6799 58.2022 50.4186 57.4059 51.8069 56.4267C52.063 56.2439 53.1548 55.304 54.233 54.3509C57.6566 51.309 59.4222 50.1601 62.6031 48.9199C64.9484 48.0191 65.4875 47.7449 67.1858 46.6352C71.9841 43.528 75.2459 38.9064 76.5533 33.371C76.8633 32.0393 76.9307 31.4257 76.9846 29.3238C77.025 27.2088 76.9981 26.6083 76.7554 25.2244C75.1785 16.2162 67.9541 9.14021 58.7213 7.52134C57.5622 7.31246 53.7613 7.16885 52.683 7.27329ZM58.4787 11.438C64.0453 12.639 68.5741 16.0595 71.108 20.9684C72.4019 23.475 72.8332 25.2114 72.9276 28.2141C72.995 30.1985 72.968 30.6946 72.7119 31.974C71.701 37.0917 68.6145 41.3347 63.951 44.0111C63.4388 44.2983 62.0909 44.9119 60.9453 45.3558C57.4544 46.7266 55.2844 48.0974 52.1034 50.9435C49.7582 53.0454 49.0439 53.5937 47.9251 54.129C46.483 54.8209 45.1621 55.1081 43.4503 55.1081C39.582 55.1081 36.455 53.3065 34.7298 50.0818C33.5033 47.771 32.9911 45.4341 33.328 43.5411C33.4224 43.045 33.8941 41.6872 34.3659 40.5122C36.145 36.1779 36.5494 34.2457 36.7111 29.4543C36.7785 27.2088 36.8998 25.7466 37.0346 25.1461C38.7194 17.9004 44.569 12.5085 52.0765 11.3074C53.5187 11.0724 57.1309 11.1507 58.4787 11.438ZM32.4654 54.0245C32.6002 54.2334 33.1932 54.847 33.7998 55.4084L34.878 56.4267L31.4276 59.7819C29.5271 61.6228 27.8962 63.2808 27.8019 63.4636C27.6806 63.6855 27.5997 64.6124 27.5458 66.4271C27.4784 69.0121 27.4784 69.0643 27.1414 69.4037C26.4136 70.161 25.6184 70.3046 24.7288 69.8607C23.9066 69.456 23.6775 68.9729 23.6101 67.4324C23.5427 65.9832 23.3405 65.4741 22.6531 64.978C22.3431 64.756 22.0197 64.6908 20.7527 64.6385C19.6205 64.5863 19.1488 64.508 18.8657 64.3383C17.9222 63.7377 17.6526 62.2886 18.34 61.4922C18.9466 60.8003 19.324 60.7219 21.9523 60.7219C23.691 60.7219 24.4323 60.6697 24.7558 60.5392C24.9984 60.4347 26.7371 58.855 28.6241 57.0142C30.511 55.1734 32.1015 53.672 32.1419 53.672C32.1958 53.672 32.3441 53.8287 32.4654 54.0245Z" fill="#FFB500"/>
<path d="M54.0828 16.0056C53.1646 16.3318 52.792 16.8668 52.792 17.8456C52.792 18.9026 53.444 19.6073 54.5219 19.7117C55.7594 19.8291 56.651 19.0331 56.651 17.8325C56.651 16.4492 55.3868 15.5488 54.0828 16.0056Z" fill="#FFB500"/>
<path d="M45.2343 18.953C44.3028 19.5142 43.9968 20.7278 44.5823 21.563C45.048 22.2416 45.5137 22.5156 46.1791 22.5156C48.2017 22.5156 48.9868 20.0884 47.3368 18.9791C46.7646 18.6007 45.8464 18.5877 45.2343 18.953Z" fill="#FFB500"/>
<path d="M51.1955 24.3173C49.8249 24.8524 49.4922 26.601 50.5834 27.5406C51.9407 28.7021 53.8569 27.8538 53.8569 26.0921C53.8569 24.761 52.4463 23.8345 51.1955 24.3173Z" fill="#FFB500"/>
</svg>
