<svg width="91" height="81" viewBox="0 0 91 81" fill="none" xmlns="http://www.w3.org/2000/svg">
<path d="M62.7193 6.05509C64.5034 6.27734 66.7157 7.96009 67.4151 9.64283C67.6577 10.2302 67.7719 10.3255 68.4713 10.5636C69.5275 10.9128 70.3553 11.4684 71.1974 12.4209C71.8397 13.1353 72.7531 14.8498 72.7531 15.3261C72.7531 15.4372 73.0671 15.6436 73.4668 15.7864C74.9512 16.3262 76.4498 17.9931 77.1063 19.7869C77.4061 20.5807 77.506 20.7077 78.0769 20.9458C80.7317 22.0729 82.4016 25.4067 81.9163 28.5816C81.6879 30.0739 81.1741 31.2328 80.2606 32.344C79.5185 33.233 79.5042 33.2648 79.5042 34.2808C79.4899 36.8366 78.0769 39.2655 75.9645 40.4244C75.2366 40.8212 75.1224 40.9641 74.7228 41.9007C74.1233 43.2818 72.9244 44.6153 71.6541 45.2821C70.8406 45.7107 70.4838 45.7901 69.4133 45.8536L68.143 45.9012L67.4579 46.6632C65.7023 48.6158 62.9049 49.1873 60.6355 48.0761L60.0075 47.7745L59.1083 48.1713C57.3813 48.9492 54.855 48.9333 53.0994 48.1555L52.1574 47.7268L50.7159 48.1872C49.5169 48.5682 49.0031 48.6476 47.7043 48.6476C46.3626 48.6476 46.0201 48.5841 45.3778 48.2666L44.6356 47.8856L43.4938 48.3142C42.7231 48.6 42.0522 48.727 41.3814 48.727C40.4394 48.727 40.3966 48.7428 39.8685 49.3461C39.5688 49.6953 38.9836 50.2351 38.5839 50.5685C37.9559 51.0606 37.7418 51.3781 37.2851 52.4417C36.3431 54.6801 33.9025 56.9184 32.047 57.2359C31.7473 57.2994 31.5046 57.4106 31.5046 57.4899C31.5046 57.7916 32.1897 58.6329 32.9747 59.2997C34.402 60.4903 35.1156 60.649 39.4974 60.7919C42.8658 60.8872 43.3796 60.9348 44.1932 61.2523C48.3751 62.8557 51.1012 66.491 51.6579 71.19C51.9005 73.1744 51.6293 74.0951 50.5874 74.7301C50.1735 74.9841 49.4599 75 42.352 75C35.6437 74.9841 34.3449 74.9524 32.9319 74.7143C26.7089 73.6348 21.428 70.6979 17.0748 65.8719C14.4914 63.0144 12.6074 59.379 11.5797 55.2674C11.3799 54.4419 11.1944 54.1086 10.5949 53.4259C9.5958 52.3306 9.32462 51.4098 9.41026 49.5366C9.46735 48.6 9.62435 47.6951 9.92408 46.6791L10.3665 45.2027L10.0097 44.5995C8.48252 42.0436 8.71089 38.44 10.5378 36.1222C10.9374 35.6142 11.0945 35.2491 11.2086 34.4554C11.4513 32.9631 12.0793 31.6138 13.007 30.5819C13.6636 29.8358 13.8063 29.5976 13.8063 29.1373C13.8063 27.4386 14.5199 25.5495 15.6475 24.2319C16.4325 23.3112 16.4468 23.2794 16.6038 21.9777C17.0034 18.6757 19.073 16.1833 21.8419 15.6753C22.6983 15.5166 22.8125 15.4531 23.1407 14.9133C24.1398 13.2306 26.4378 11.9923 28.3931 12.0717C29.1924 12.1034 29.2352 12.0876 29.9346 11.3573C31.0622 10.1826 32.2468 9.64283 33.8882 9.54758L35.2441 9.46821L35.8864 8.78558C36.6999 7.89659 38.0416 7.16634 39.2548 6.94409C40.0398 6.80121 40.4251 6.81709 41.4671 7.03934L42.7231 7.30921L43.3653 6.89646C44.4073 6.26147 45.3065 6.02334 46.7052 6.02334C47.9469 6.03922 48.3894 6.15034 49.8738 6.83296C50.4161 7.07109 51.9719 6.84884 53.442 6.30909C54.6837 5.84872 56.6534 5.94397 57.7666 6.51546L58.5517 6.92821L59.3224 6.54721C60.2644 6.08684 61.5347 5.89634 62.7193 6.05509ZM60.3928 11.2145C59.2367 11.8018 57.8951 11.8018 56.7105 11.2145C55.7256 10.7065 55.0691 10.6747 54.2841 11.0875C53.6846 11.4049 52.9424 11.5161 50.6873 11.6748C49.4884 11.7701 49.3314 11.7383 48.475 11.3414C47.9755 11.0875 47.1905 10.8652 46.748 10.8335C46.0201 10.77 45.8488 10.8176 44.9782 11.3573C43.7935 12.0876 42.4376 12.2622 41.0674 11.8336C39.9256 11.4684 39.3404 11.6589 38.4983 12.6273C37.4849 13.7703 36.6714 14.1672 35.1442 14.2307C33.3601 14.3101 33.2887 14.3418 32.3753 15.3102C31.2334 16.5167 30.477 16.8659 28.9498 16.8501C27.4797 16.8342 27.0087 17.0723 26.1523 18.3106C25.3673 19.39 24.5395 19.9298 23.1978 20.2155C21.3852 20.5965 20.9855 21.1045 20.7857 23.2159C20.643 24.8669 20.172 25.9464 19.1015 27.1212C18.3593 27.9466 18.2451 28.1371 18.1738 28.8198C18.0168 30.2803 17.7741 31.4868 17.56 31.9789C17.4316 32.2329 16.932 32.9314 16.4468 33.5029C15.6618 34.4078 15.5333 34.6459 15.4477 35.3285C15.2193 37.1224 15.0052 37.6621 14.0632 38.8527C13.0498 40.1069 12.9927 40.8689 13.792 42.3611C14.8197 44.282 14.8768 45.1551 14.1631 47.5522C13.5066 49.7112 13.5066 50.0287 14.1631 50.2986C14.6484 50.4891 15.205 51.0765 16.4753 52.6639C17.246 53.6323 17.8598 53.6958 19.6582 53.0132C21.1996 52.4258 21.8134 52.4417 23.155 53.0926C24.1969 53.6164 24.9106 53.6006 25.8383 53.0449C26.5662 52.6322 26.6233 52.6163 28.7928 52.6639C30.9052 52.6957 31.0193 52.6798 31.7473 52.2988C32.6893 51.7749 33.2602 51.013 33.7169 49.6795C34.088 48.5841 34.559 47.9808 36.0006 46.7426C36.3859 46.4092 37.071 45.7583 37.5135 45.298C38.4412 44.3296 39.3261 43.9645 40.7534 43.9645C41.41 43.9645 42.038 43.8216 42.9657 43.4723C44.4501 42.9009 45.1209 42.9167 46.4483 43.5676C47.4617 44.0756 48.0897 44.0597 49.7739 43.5358C51.6436 42.9485 52.9424 42.9485 54.2413 43.5517C55.5686 44.1391 56.6819 44.1391 57.9236 43.5517C59.2225 42.9167 60.5927 42.9167 61.9629 43.5358C63.3331 44.155 63.6613 44.0597 64.9887 42.6945C66.2304 41.4086 66.9155 41.107 68.5997 41.107C70.0698 41.107 70.4267 40.853 71.0832 39.329C71.754 37.7574 72.1965 37.2494 73.5381 36.4556C74.9797 35.5984 75.1795 35.265 75.2366 33.3918C75.2937 31.6138 75.5792 30.8359 76.7353 29.4706C77.6773 28.3276 77.8914 27.6926 77.6202 26.7719C77.4061 26.0575 76.8352 25.5019 75.9645 25.1368C74.9226 24.7082 73.738 23.3429 73.324 22.1047C72.9387 20.9299 72.5248 20.4854 71.3972 19.9774C70.2126 19.4694 69.2135 18.3264 68.771 17.0088C68.3714 15.8499 67.9289 15.3737 66.8727 14.9927C65.3741 14.4529 64.5748 13.7544 63.8611 12.3574C63.0191 10.7065 62.02 10.389 60.3928 11.2145ZM20.1292 57.8551C19.4441 58.1249 18.759 58.2678 18.1595 58.2678L17.2318 58.2837L17.5315 58.8711C18.4307 60.6649 20.4146 63.0938 22.2273 64.6337L23.1407 65.4115L25.4957 62.7922L27.8508 60.1728L27.3655 59.1727C27.1086 58.6171 26.8517 58.1091 26.7946 58.0456C26.7375 57.9662 26.4092 57.9979 26.0667 58.1091C25.0247 58.4266 23.4262 58.3313 22.37 57.8868C21.8562 57.6646 21.3852 57.4899 21.3138 57.4741C21.2424 57.4741 20.7001 57.6328 20.1292 57.8551ZM27.5368 68.142C29.2352 68.9516 31.733 69.6978 34.0309 70.0629L34.6446 70.1581V67.7134V65.2687L33.46 64.8559C32.8177 64.6337 31.9613 64.2368 31.576 63.9669L30.8623 63.5065L28.8927 65.6814L26.9373 67.8563L27.5368 68.142ZM38.9265 67.9356V70.3169H42.9943C45.2351 70.3169 47.062 70.2851 47.062 70.2375C47.062 69.8883 46.3198 68.5548 45.7346 67.8404C44.3502 66.1577 43.0371 65.5703 40.5964 65.5544H38.9265V67.9356Z" fill="#FFB500"/>
<path d="M59.7648 18.3424C60.2929 18.8504 60.6212 19.5013 60.6212 20.1045C60.6354 20.8189 61.135 21.8667 61.6345 22.2C61.8914 22.3747 62.4481 22.5652 62.8763 22.6287C64.9316 22.9144 65.6167 25.4068 64.0466 26.8831C63.6613 27.2324 63.4615 27.2959 62.6479 27.2959C60.9352 27.2959 59.5792 26.645 58.309 25.2163C57.2956 24.105 56.6533 22.6763 56.4678 21.1047C56.3393 20.1363 56.3536 19.914 56.6105 19.279C56.9816 18.3583 57.5953 17.9297 58.5801 17.9297C59.1653 17.9297 59.408 18.0091 59.7648 18.3424Z" fill="#FFB500"/>
<path d="M37.9275 18.2789C38.527 18.7234 38.9266 19.5489 38.9266 20.3109C38.9266 21.4698 39.8116 22.4223 41.0818 22.6128C42.3093 22.8033 43.2085 23.8034 43.2085 24.994C43.2085 25.6767 42.7803 26.518 42.2237 26.9308C41.8526 27.2165 41.5386 27.2959 40.8535 27.2959C38.0703 27.2959 35.6011 25.0893 34.8589 21.9778C34.4592 20.2315 34.6162 19.2632 35.4155 18.4218C35.9722 17.8344 37.2424 17.7709 37.9275 18.2789Z" fill="#FFB500"/>
<path d="M50.7731 27.5657C51.4011 27.8197 52.0577 28.8674 52.0577 29.6294C52.072 30.3438 52.5715 31.3916 53.0711 31.7249C53.328 31.8996 53.8846 32.0901 54.3128 32.1536C56.3681 32.4393 57.0532 34.9317 55.4832 36.4081C55.0978 36.7573 54.898 36.8208 54.0844 36.8208C50.9872 36.8208 48.3467 34.1856 47.9043 30.6613C47.7758 29.6612 47.7901 29.4389 48.047 28.8039C48.4038 27.915 49.0461 27.4546 49.9168 27.4705C50.2736 27.4705 50.6589 27.5181 50.7731 27.5657Z" fill="#FFB500"/>
<path d="M33.6456 32.5665C34.2165 33.011 34.6447 33.8524 34.6447 34.5668C34.6447 35.7733 35.3583 36.567 36.7 36.8845C37.8133 37.1385 38.2843 37.4719 38.6554 38.2498C39.1692 39.2975 38.8552 40.5357 37.9417 41.2184C37.5563 41.5041 37.2566 41.5835 36.5002 41.5835C34.9159 41.5835 33.4315 40.8532 32.1898 39.4563C30.6768 37.7418 29.9061 34.7255 30.6483 33.3603C31.2763 32.2332 32.7036 31.8522 33.6456 32.5665Z" fill="#FFB500"/>
<path d="M20.7856 37.3287C21.3708 37.7732 21.799 38.6146 21.799 39.329C21.799 40.5355 22.5126 41.3292 23.8543 41.6467C24.9675 41.9007 25.4386 42.2341 25.8096 43.012C26.3092 44.0438 26.0095 45.2821 25.0817 45.9806C24.1968 46.6632 22.2985 46.4251 20.7 45.425C19.8579 44.9011 18.716 43.5835 18.2879 42.6627C17.5742 41.107 17.3173 39.1226 17.7169 38.2812C18.1166 37.4399 18.6019 37.0906 19.4868 37.0112C20.1576 36.9636 20.386 37.0112 20.7856 37.3287Z" fill="#FFB500"/>
</svg>
