<svg width="91" height="81" viewBox="0 0 91 81" fill="none" xmlns="http://www.w3.org/2000/svg">
<path d="M47.0771 6.27153C46.4974 6.56812 46.0256 7.36353 46.0256 8.01065C46.0256 8.68473 46.4974 9.45318 47.1041 9.76325C47.6164 10.0194 47.8861 10.0329 56.3662 10.0329C61.6646 10.0329 65.453 10.0868 65.9788 10.1677C69.7268 10.7609 73.0029 13.1741 74.7286 16.5984C75.497 18.1353 75.8476 19.6183 75.8745 21.3574C75.888 22.7999 75.8611 22.9617 75.524 23.5819C75.3353 23.9459 74.9308 24.4851 74.6477 24.7548C74.1623 25.2266 73.1242 25.7929 72.7467 25.8063C72.6524 25.8063 71.9783 25.294 71.2368 24.6739C64.1318 18.7015 53.0227 14.0774 43.4775 13.1336C41.6709 12.9584 35.2535 12.9584 33.4739 13.1336C21.6502 14.3335 12.3747 23.6358 11.0939 35.5805C10.9052 37.3466 11.013 40.6361 11.3096 42.5909C13.2375 54.994 22.2704 64.9703 34.3637 68.0711C36.9522 68.7317 38.961 68.9878 41.7788 69.0013L44.2055 69.0148L44.8796 69.9315C45.729 71.091 47.4142 72.7087 48.4523 73.3828C50.6499 74.8119 53.5485 75.3107 56.6089 74.8119C59.1165 74.4074 61.4758 73.5446 61.9747 72.8301C62.4465 72.183 62.4196 71.3201 61.9073 70.0933C61.3006 68.6643 60.4782 67.2757 59.4131 65.8871L58.5368 64.7411L59.0761 64.121C60.6669 62.2066 62.3387 59.0519 62.3387 57.9329C62.3387 56.5713 61.5028 55.9511 58.4829 55.1153C54.8832 54.1311 51.324 54.4547 48.7085 56.0051C47.6299 56.6522 45.8907 58.243 45.1492 59.2811C44.8526 59.699 44.556 60.0361 44.5021 60.0495C44.4482 60.0495 42.318 59.0115 39.7834 57.7307C35.3748 55.5197 35.1322 55.3849 34.2963 54.5356C32.8942 53.12 32.274 51.6505 32.274 49.7361C32.274 46.6623 34.2693 44.0199 37.2488 43.1436C38.3813 42.8066 38.4083 42.8201 38.6105 43.6964C39.3925 47.242 42.0484 50.5585 45.4324 52.2437C46.794 52.9178 47.6164 53.0391 48.3175 52.6751C49.5443 52.0415 49.787 50.2754 48.7759 49.3721C48.6276 49.2508 48.1422 48.9947 47.6704 48.8059C45.5132 47.9431 43.6932 46.0557 42.8438 43.7908C42.6686 43.3189 42.5203 42.901 42.5203 42.874C42.5203 42.8471 43.1674 42.7931 43.9763 42.7392C44.7717 42.6853 45.9986 42.5639 46.6997 42.4696C47.4007 42.3617 48.0209 42.3213 48.0613 42.3752C48.1018 42.4156 48.2501 42.7257 48.3714 43.0628C48.7489 44.0469 50.0432 45.8534 51.0813 46.8915C52.6047 48.4015 55.1933 50.0732 55.9887 50.0732C56.5819 50.0597 57.4178 49.6013 57.7279 49.1025C58.1323 48.4554 58.1188 47.5656 57.7279 46.9724C57.5526 46.7163 56.892 46.204 56.2044 45.786C54.7888 44.9097 53.0227 43.2111 52.4564 42.1595L52.0789 41.4584L52.8609 41.2427C53.4811 41.0675 56.7572 39.989 57.4178 39.7463C57.4987 39.7193 57.7279 40.0159 57.9436 40.3934C58.5098 41.418 60.0737 42.901 61.1253 43.4268C62.8914 44.3165 64.8598 44.5457 65.7226 43.966C66.6394 43.3594 66.9225 41.9842 66.3024 41.1349C65.9653 40.663 65.0755 40.2316 64.4688 40.2316C63.8487 40.2316 63.2015 40.0024 62.5274 39.5441C61.9612 39.1531 61.1253 38.0476 61.3545 37.9802C61.4219 37.9532 62.1365 37.5623 62.9589 37.1174C65.8979 35.4861 69.174 33.1403 71.7356 30.808C72.5984 30.0261 72.8141 29.9047 73.5556 29.7564C77.1823 29.0284 80 25.5097 80 21.7079C80 14.9806 75.4027 8.76562 68.9448 6.7299C66.7068 6.02886 65.9923 5.98841 56.4066 6.00189C47.8861 6.00189 47.5625 6.01538 47.0771 6.27153ZM37.5994 17.987C34.9569 23.2448 34.512 29.5542 36.3995 35.0143C36.777 36.0928 37.505 37.778 38.0443 38.7756C38.0712 38.8295 37.8016 38.9104 37.4376 38.9644C36.4669 39.0992 35.1456 39.5306 34.1615 40.0294L33.2717 40.4743L32.3144 40.0294C30.2787 39.0857 27.9328 37.3196 26.4633 35.6074C23.6051 32.3045 22.0547 28.3139 21.9873 24.0942L21.9603 22.4225L22.4996 21.9641C24.9264 19.8475 28.6743 18.0679 31.9774 17.4612C33.757 17.1242 34.0671 17.0972 36.2916 17.0703L38.0712 17.0433L37.5994 17.987ZM46.2278 17.5961C52.9418 18.7959 60.7748 22.0854 66.4642 26.1164C67.2731 26.6961 68.1494 27.3432 68.4055 27.5724L68.8774 27.9769L68.3381 28.4487C67.2461 29.3924 64.2531 31.5899 62.8106 32.4797C57.647 35.7018 51.4318 37.8589 45.2841 38.5464C42.709 38.843 42.9382 38.8969 42.1967 37.778C41.0372 36.0119 40.107 33.747 39.6082 31.4686C39.2846 29.9587 39.2172 26.9658 39.4733 25.3345C39.8643 22.7191 40.8485 20.1306 42.1967 18.0949L42.8303 17.1512L43.7876 17.2455C44.3134 17.286 45.4189 17.4478 46.2278 17.5961ZM18.3607 28.0982C18.819 30.7676 20.4638 34.448 22.2704 36.8612C24.104 39.2879 26.7194 41.5798 29.3349 43.0493L30.1034 43.4942L29.4967 44.6131C28.6339 46.2174 28.2159 47.9566 28.2429 49.871L28.2564 51.3404L27.8789 51.4618C27.6632 51.5157 26.5172 51.6101 25.3308 51.6505C22.8501 51.7314 21.3267 51.5427 19.2909 50.8821L18.0236 50.4776L17.5248 49.3856C15.8126 45.6377 15.098 42.3887 15.098 38.2094C15.0845 35.1491 15.2733 33.8818 16.0957 31.4282C16.608 29.9182 17.9023 27.1545 18.1045 27.1545C18.1584 27.1545 18.2663 27.5859 18.3607 28.0982ZM30.1169 55.8972C30.7101 56.8005 31.8965 57.9869 32.9076 58.6744C33.3391 58.971 35.8332 60.2787 38.4487 61.5864L43.1944 63.9592V64.4985V65.0377H42.1562C37.3836 65.0377 32.3819 63.6626 28.2564 61.2359C26.2341 60.0361 23.0793 57.4611 22.0547 56.1803L21.6502 55.668L24.6432 55.6546C26.8273 55.6546 27.8789 55.5871 28.5665 55.4388C29.0923 55.3175 29.5507 55.2231 29.5911 55.2097C29.6315 55.2097 29.8742 55.5063 30.1169 55.8972ZM56.7437 58.8362C57.0403 58.9171 57.3639 59.0115 57.4447 59.0384C57.62 59.0924 57.1077 60.1035 56.5145 60.8584C56.0157 61.5056 54.7349 62.7593 54.29 63.029C54.0338 63.1908 53.7237 63.5413 53.5754 63.8379C53.0496 64.8625 53.3328 65.8197 54.3843 66.5881C55.2607 67.2352 56.501 68.5969 57.1212 69.608L57.62 70.4304L57.3099 70.5517C56.8111 70.7404 55.1393 70.9696 54.2226 70.9696C53.1305 70.9696 51.8228 70.6595 50.9734 70.1877C50.1106 69.7293 48.5602 68.1789 47.8187 67.0734L47.2389 66.2106V64.7681V63.3256L47.94 62.3279C49.3151 60.3596 50.9195 59.1328 52.6317 58.7418C53.4676 58.5531 55.8943 58.607 56.7437 58.8362Z" fill="#FFB500"/>
<path d="M49.0994 25.9545C48.5197 26.2511 48.0479 27.0465 48.0479 27.6936C48.0479 27.9228 48.1692 28.3542 48.3175 28.6373C48.6276 29.244 49.396 29.7158 50.0701 29.7158C50.2993 29.7158 50.7308 29.5945 51.0139 29.4462C51.6206 29.1361 52.0924 28.3677 52.0924 27.6936C52.0924 27.0195 51.6206 26.2511 51.0139 25.941C50.3533 25.6039 49.7466 25.6039 49.0994 25.9545Z" fill="#FFB500"/>
</svg>
