<svg width="91" height="81" viewBox="0 0 91 81" fill="none" xmlns="http://www.w3.org/2000/svg">
<path d="M33.231 43.1147C29.7746 43.1147 26.9595 45.929 26.9595 49.388C26.9595 52.8471 29.7737 55.6604 33.231 55.6604C36.6918 55.6604 39.5061 52.8471 39.5061 49.388C39.5061 45.929 36.6918 43.1147 33.231 43.1147V43.1147ZM33.231 51.8294C31.8879 51.8294 30.7931 50.7346 30.7931 49.3906C30.7931 48.0467 31.8879 46.9501 33.231 46.9501C34.5785 46.9501 35.6724 48.0467 35.6724 49.3906C35.6724 50.7346 34.5785 51.8294 33.231 51.8294V51.8294ZM45.2539 17.103C41.7957 17.103 38.9788 19.919 38.9788 23.3781C38.9788 26.8362 41.7948 29.6531 45.2539 29.6531C48.7129 29.6531 51.5289 26.8371 51.5289 23.3781C51.5289 19.919 48.7129 17.103 45.2539 17.103ZM45.2539 25.8213C44.6064 25.8206 43.9856 25.563 43.5277 25.1052C43.0698 24.6473 42.8123 24.0265 42.8116 23.379C42.8121 22.7314 43.0695 22.1104 43.5274 21.6525C43.9854 21.1946 44.6063 20.9371 45.2539 20.9367C45.9013 20.9374 46.522 21.1949 46.9798 21.6528C47.4375 22.1107 47.6948 22.7315 47.6953 23.379C47.6944 24.0263 47.4369 24.6468 46.9793 25.1046C46.5216 25.5624 45.9012 25.8201 45.2539 25.8213V25.8213Z" fill="#FFB500"/>
<path d="M84.8735 33.7527C84.8659 33.672 84.8542 33.5918 84.8384 33.5123C84.8358 33.4992 84.8358 33.4869 84.834 33.4755C77.5799 4.76182 37.7075 10.4324 37.3057 10.493C36.9488 10.5471 36.6144 10.7006 36.3407 10.936L19.9096 25.0871C19.6919 25.2752 19.5192 25.5099 19.4043 25.7738C19.2895 26.0377 19.2355 26.324 19.2463 26.6116C19.2571 26.8991 19.3324 27.1806 19.4666 27.4352C19.6009 27.6897 19.7907 27.9108 20.0219 28.0821C20.6597 28.554 21.0264 29.2646 21.0264 30.0375C21.0259 30.6852 20.7685 31.3064 20.3106 31.7646C19.8528 32.2228 19.2318 32.4806 18.5841 32.4815C18.2598 32.4818 17.9388 32.4168 17.6401 32.2905C17.3414 32.1642 17.0711 31.9792 16.8454 31.7464C16.6611 31.5557 16.4388 31.4059 16.1929 31.3068C15.947 31.2076 15.683 31.1613 15.418 31.1709C14.8829 31.1867 14.3785 31.4253 14.0293 31.8289L6.08486 40.9787C6.06907 40.9945 6.06468 41.0138 6.0524 41.0313C5.94546 41.1571 5.85685 41.2974 5.78922 41.448C5.78396 41.4568 5.77782 41.4638 5.77519 41.4717C5.70764 41.6235 5.66641 41.7875 5.64272 41.9586C5.63658 41.9998 5.63395 42.0402 5.62956 42.0805C5.62518 42.1332 5.61377 42.1805 5.61377 42.2341V50.6023C5.61377 51.1479 5.84712 51.6673 6.25242 52.0322C6.45353 52.2117 6.69017 52.3469 6.94696 52.429C7.20375 52.5111 7.47493 52.5382 7.74289 52.5085L8.01308 52.4735C8.10432 52.4621 8.19204 52.4454 8.28416 52.4454C9.62736 52.4461 10.9154 52.9796 11.8657 53.9289C12.816 54.8782 13.3509 56.1657 13.353 57.5089C13.3518 58.8529 12.8174 60.1415 11.8671 61.0919C10.9167 62.0422 9.62813 62.5766 8.28416 62.5778C8.19204 62.5778 8.10344 62.5602 8.01308 62.5471L7.74289 62.5146C7.47512 62.4861 7.20435 62.5135 6.94776 62.5952C6.69118 62.6769 6.45438 62.8111 6.25242 62.9892C6.05149 63.1695 5.89079 63.3901 5.78075 63.6366C5.67072 63.8831 5.61382 64.15 5.61377 64.42V72.082C5.61348 72.3516 5.6701 72.6183 5.77993 72.8645C5.88975 73.1107 6.05031 73.331 6.2511 73.5109C6.4519 73.6909 6.68841 73.8264 6.94517 73.9087C7.20193 73.9909 7.47316 74.0181 7.74113 73.9883L42.5035 70.1705C42.7709 70.1405 43.029 70.0545 43.2611 69.9182C43.4931 69.7819 43.6938 69.5982 43.8501 69.3792C44.0072 69.1608 44.1164 68.9117 44.1707 68.6482C44.225 68.3847 44.223 68.1128 44.165 67.8501C44.0819 67.4916 44.039 67.125 44.037 66.757C44.0386 65.4141 44.5729 64.1266 45.5227 63.1771C46.4725 62.2276 47.7602 61.6938 49.1031 61.6926C50.4451 61.6947 51.7315 62.2284 52.6807 63.177C53.6299 64.1256 54.1646 65.4116 54.1676 66.7535C54.1693 67.2965 54.4009 67.8141 54.8062 68.1791C55.0071 68.3581 55.2433 68.4929 55.4996 68.5747C55.756 68.6565 56.0266 68.6834 56.2941 68.6537L83.183 65.6991C83.652 65.6474 84.0855 65.4245 84.4004 65.0731C84.7152 64.7216 84.8893 64.2664 84.8893 63.7945V33.9439L84.8867 33.9115C84.8867 33.8588 84.8779 33.8062 84.8735 33.7527V33.7527ZM15.7821 35.6546C16.6418 36.0871 17.5937 36.3152 18.5823 36.3152C20.2465 36.3135 21.842 35.6517 23.0186 34.4749C24.1952 33.2981 24.8569 31.7025 24.8583 30.0384C24.8562 28.8619 24.5211 27.71 23.8915 26.7162L38.4041 14.2152C42.8088 13.6888 73.1673 10.8956 80.4872 32.2894L69.4556 33.5027C67.9397 30.327 64.7061 28.1215 60.9602 28.1215C56.4871 28.1215 52.742 31.2586 51.7884 35.4467L12.1862 39.7944L15.7821 35.6546V35.6546ZM66.5414 37.5328C66.5397 39.0126 65.9512 40.4313 64.9049 41.4778C63.8587 42.5242 62.44 43.113 60.9602 43.1148C59.4806 43.113 58.0621 42.5242 57.0161 41.4777C55.9701 40.4312 55.382 39.0124 55.3808 37.5328C55.3827 36.0536 55.9711 34.6356 57.017 33.5896C58.063 32.5437 59.481 31.9553 60.9602 31.9534C62.4397 31.9548 63.8582 32.543 64.9045 33.589C65.9508 34.635 66.5395 36.0533 66.5414 37.5328V37.5328ZM81.0574 62.0725L57.7477 64.6349C56.7915 60.7487 53.2772 57.8546 49.104 57.8546C44.2615 57.8546 40.3095 61.7426 40.2051 66.5614L9.4474 69.9397V66.3359C13.8092 65.7622 17.1866 62.0242 17.1866 57.5081C17.1866 52.9954 13.8092 49.2548 9.4474 48.6837V43.9526L51.7209 39.3101C52.5525 43.6543 56.3783 46.9493 60.9602 46.9493C66.1501 46.9493 70.3759 42.7262 70.3759 37.5328C70.3759 37.4407 70.3645 37.3503 70.3601 37.2582L81.0557 36.0827L81.0574 62.0725V62.0725Z" fill="#FFB500"/>
</svg>
