<svg width="91" height="81" viewBox="0 0 91 81" fill="none" xmlns="http://www.w3.org/2000/svg">
<path d="M57.2337 7.2874C58.225 7.7263 58.6826 8.66462 58.4538 9.81482C58.3775 10.2386 58.103 10.6169 57.4014 11.3131C56.2271 12.4482 55.9373 13.2806 56.2576 14.5972C56.4101 15.2631 56.5931 15.5355 57.2794 16.1561C58.9571 17.6846 59.5519 18.3505 60.0247 19.2283C61.2905 21.5741 61.2905 24.2075 60.0094 26.5835C59.1553 28.1878 57.3709 29.7012 56.3339 29.7012C55.4035 29.7012 54.3969 28.9747 54.0919 28.0818C53.8021 27.204 54.0309 26.5684 55.0222 25.5393C56.0288 24.5101 56.3949 23.7988 56.3949 22.9059C56.3949 21.8314 55.9983 21.1806 54.5647 19.8791C53.0701 18.517 52.4448 17.6543 51.9872 16.2923C51.0569 13.5378 51.6822 10.6926 53.6801 8.58895C54.5952 7.60522 55.5865 6.99985 56.2576 6.99985C56.4559 6.99985 56.8982 7.13606 57.2337 7.2874Z" fill="#FFB500"/>
<path d="M45.948 7.34824C46.6496 7.74173 47.0919 8.4833 47.0919 9.31569C47.0919 10.0573 46.7716 10.6626 46.1005 11.1772C45.2465 11.8128 44.7584 12.7814 44.7584 13.7954C44.7584 14.991 45.1244 15.6569 46.314 16.6104C47.8849 17.8665 48.5712 18.8048 49.1508 20.5301C50.1879 23.5872 49.0745 27.1287 46.4971 29.0053C45.2922 29.8831 44.3161 29.9133 43.3553 29.081C42.2267 28.0972 42.3182 26.7654 43.5993 25.5396C44.5906 24.571 44.9567 23.8597 44.9567 22.8911C44.9567 21.7863 44.5754 21.1809 42.9893 19.7432C41.8149 18.6686 41.5251 18.3054 40.9913 17.246C39.512 14.2494 39.9847 11.0107 42.2724 8.55897C43.6756 7.04555 44.7737 6.68233 45.948 7.34824Z" fill="#FFB500"/>
<path d="M34.433 7.28762C36.0039 8.10487 36.0801 10.1631 34.5855 11.2679C33.3196 12.176 32.9383 14.0375 33.7162 15.3542C33.9297 15.7325 34.494 16.3227 34.9668 16.6708C36.4004 17.7454 37.5595 19.4707 37.9255 21.09C38.1238 21.9527 38.1238 23.8444 37.9255 24.7071C37.4832 26.614 35.5158 29.1566 34.1584 29.5652C32.4198 30.0797 30.8337 28.6117 31.2302 26.8713C31.3217 26.4778 31.6267 26.054 32.2368 25.4789C33.2434 24.4952 33.5179 23.9504 33.5179 22.891C33.5179 21.8921 33.2434 21.2565 32.5266 20.6209C30.5286 18.835 30.1473 18.4113 29.6593 17.4729C28.9882 16.1865 28.729 15.0817 28.7442 13.6591C28.79 11.5555 29.7508 9.45181 31.3217 8.0746C32.5571 6.98494 33.4416 6.75792 34.433 7.28762Z" fill="#FFB500"/>
<path d="M74.6967 29.777C80.6142 30.9726 84.5033 36.2091 83.8322 42.0509C83.6492 43.6854 83.1002 45.3501 82.3071 46.6819L81.7123 47.6959L82.2613 48.5586C83.2984 50.178 84 52.6902 84 54.8393C84 56.9429 82.9934 59.5763 81.514 61.2865C79.9279 63.148 78.052 64.4646 72.7445 67.4915C65.3934 71.6837 58.21 74.0143 50.1421 74.8165C47.7019 75.0586 41.7386 75.0586 39.4662 74.8316C30.5136 73.8933 23.559 71.4264 14.3472 65.9024C9.66508 63.1177 8.59749 62.1642 7.30113 59.6822C6.29454 57.7451 6.14203 57.0338 6.14203 54.3701C6.15728 52.2059 6.18778 51.9335 6.56906 50.8136C6.81308 50.1477 7.27062 49.1791 7.60615 48.6494C7.92643 48.1197 8.20095 47.6505 8.20095 47.6051C8.20095 47.5597 8.03319 47.3025 7.83492 47.0452C7.31638 46.3641 6.58431 44.881 6.27929 43.8367C5.88275 42.5503 5.91326 39.584 6.34029 38.01C7.24012 34.7259 9.40581 32.0926 12.3798 30.7002C14.1642 29.8527 15.2013 29.6408 17.3517 29.6408C20.2952 29.6257 21.7594 30.1251 24.7639 32.138C27.3871 33.8935 27.8752 34.1962 29.8883 35.1497C35.2568 37.7074 40.8998 38.8122 46.802 38.4792C53.5279 38.0706 58.7743 36.2847 64.6918 32.365C65.9729 31.5023 67.4981 30.6245 68.0776 30.3975C70.1213 29.5803 72.5768 29.3533 74.6967 29.777ZM70.8076 34.2568L70.1366 34.4232L67.7268 40.4013C65.0884 46.9392 64.9054 47.2722 63.7005 47.59C63.0752 47.7413 62.9227 47.7262 62.3126 47.4387C61.5348 47.0603 60.9705 46.2128 60.9705 45.4258C60.9705 45.1383 61.5501 43.4735 62.2516 41.7331C62.9532 39.9775 63.5022 38.5246 63.487 38.4943C63.4565 38.4641 63.0599 38.6457 62.6177 38.903C61.4738 39.5537 59.0488 40.5375 57.0204 41.2034L55.2818 41.7633L53.4059 46.4398C51.3774 51.4644 51.1334 51.8578 50.0506 52.1C48.6322 52.4178 47.2443 51.3282 47.2443 49.8904C47.2443 49.6937 47.8391 48.0592 48.5559 46.2733C49.288 44.4724 49.837 42.9741 49.8065 42.9287C49.7608 42.8984 48.6779 42.9287 47.3816 43.0195C46.0852 43.1103 44.1331 43.1405 43.0502 43.08L41.0675 42.9892L39.4814 46.9695C37.7428 51.3282 37.4072 51.8578 36.3396 52.1C34.7382 52.4632 33.2589 51.0709 33.5944 49.5272C33.6554 49.285 34.3112 47.5749 35.0585 45.7134C35.8058 43.867 36.3701 42.3082 36.2939 42.2628C36.2329 42.2022 35.5008 41.9903 34.6467 41.7785C32.8928 41.3244 29.9951 40.2802 28.3479 39.4781C27.7226 39.1754 27.1888 38.9484 27.1736 38.9786C27.1583 38.9938 26.472 40.6737 25.6485 42.7017C24.0471 46.6971 23.681 47.3025 22.6745 47.5597C21.4086 47.9078 20.097 47.0603 19.8682 45.7588C19.7767 45.2139 19.9445 44.6994 21.4696 40.9007C22.4152 38.5397 23.132 36.5874 23.0557 36.5118C22.9795 36.4512 22.3542 36.0123 21.6679 35.5583C19.6242 34.1811 17.6873 33.7876 15.6283 34.3173C14.3777 34.6351 13.5999 35.074 12.6238 35.9972C10.5802 37.9344 9.92435 41.1126 11.0682 43.534C11.8613 45.2291 13.2796 46.4095 17.6873 49.0126C25.5875 53.7042 31.9015 55.8987 39.8017 56.7159C49.9133 57.7602 60.2384 55.5809 69.5723 50.4504C73.5834 48.2408 76.7709 46.2733 77.4419 45.5923C79.2416 43.761 79.8364 41.0369 78.9671 38.5397C78.2503 36.5118 76.4964 34.9227 74.2544 34.3173C73.3698 34.06 71.6769 34.0449 70.8076 34.2568ZM74.895 52.66C73.2326 53.6286 70.6551 55.0512 69.1452 55.8079L66.4305 57.17L65.8509 58.5926C65.5459 59.3644 65.1189 60.2119 64.9206 60.4541C64.4173 61.0595 63.4107 61.3924 62.6482 61.1805C61.9771 60.9989 61.1535 60.1665 61.0315 59.5158L60.94 59.092L59.3081 59.5309C58.1185 59.8638 53.4059 60.8778 53.1008 60.8778C53.0856 60.8778 52.7195 61.7708 52.2773 62.8453C51.4232 64.9489 51.0572 65.4332 50.0658 65.7057C49.288 65.9175 48.4644 65.6754 47.9001 65.0549C47.2443 64.3587 47.1223 63.6323 47.4883 62.5577C47.6409 62.0886 47.7934 61.6346 47.8239 61.5589C47.8391 61.4681 46.8173 61.4075 44.9261 61.4075C43.3095 61.4075 41.3573 61.3621 40.5948 61.3016L39.2069 61.1805L38.4901 62.9815C37.7123 64.9338 37.2547 65.5089 36.3549 65.7208C34.9518 66.0235 33.5181 64.9187 33.5181 63.5263C33.5181 63.3144 33.7469 62.5729 34.0367 61.8616C34.3265 61.1503 34.5095 60.5449 34.4637 60.5146C34.4027 60.4844 33.8079 60.3481 33.1369 60.1968C31.3525 59.8184 28.4852 59.0163 26.6856 58.3807C25.8162 58.078 25.0842 57.851 25.0537 57.8661C25.0384 57.8964 24.7944 58.4412 24.5351 59.0769C24.2758 59.7125 23.8641 60.4087 23.62 60.6357C22.7355 61.4832 21.3323 61.4075 20.463 60.4844C19.7004 59.6822 19.6699 59.0617 20.3258 57.3818C20.6308 56.5949 20.8138 55.9441 20.7375 55.9138C20.341 55.7927 15.5063 53.0383 13.7829 51.9638C12.6848 51.2979 11.7545 50.7379 11.7088 50.7379C11.5867 50.7379 11.1445 51.6006 10.8852 52.327C10.5497 53.2956 10.4581 54.3701 10.6259 55.3539C11.1445 58.5472 12.3646 59.6671 20.2495 64.1014C32.3438 70.927 46.863 72.4252 60.0859 68.2028C63.975 66.9769 67.5591 65.3122 72.0277 62.6637C75.7033 60.4844 76.2066 60.1363 77.4724 58.9104C79.1958 57.2154 79.7906 55.2328 79.2111 53.008C78.8908 51.767 78.357 50.7076 78.113 50.7985C78.0062 50.8439 76.5574 51.6762 74.895 52.66Z" fill="#FFB500"/>
</svg>
