<svg width="45" height="34" viewBox="0 0 45 34" fill="none" xmlns="http://www.w3.org/2000/svg">
<path d="M42.889 13.3567L37.3193 7.71056C36.1013 6.47585 34.5026 5.79019 32.8429 5.79066H29.9968V5.16102C29.9964 3.79238 29.4998 2.47994 28.6162 1.51217C27.7326 0.544399 26.5344 0.000492443 25.2848 0H4.71204C3.46247 0.000492443 2.2642 0.544399 1.38062 1.51217C0.497039 2.47994 0.000449603 3.79238 0 5.16102V28.2721C0.000721057 28.5456 0.100242 28.8077 0.276821 29.0011C0.453401 29.1945 0.692687 29.3035 0.942408 29.3043H3.88272C4.07971 30.5827 4.68378 31.7434 5.58776 32.5804C6.49175 33.4174 7.63721 33.8767 8.82094 33.8767C10.0047 33.8767 11.1501 33.4174 12.0541 32.5804C12.9581 31.7434 13.5622 30.5827 13.7592 29.3043H31.3068C31.5038 30.5827 32.1078 31.7434 33.0118 32.5804C33.9158 33.4174 35.0613 33.8767 36.245 33.8767C37.4287 33.8767 38.5742 33.4174 39.4782 32.5804C40.3822 31.7434 40.9862 30.5827 41.1832 29.3043H44.0576C44.3073 29.3035 44.5466 29.1945 44.7231 29.0011C44.8997 28.8077 44.9992 28.5456 45 28.2721V18.6622C45.0031 17.6659 44.8171 16.6798 44.4537 15.7664C44.0903 14.8531 43.5574 14.0325 42.889 13.3567ZM41.6073 14.8741H36.0282V9.21758L36.0377 9.2279L41.6073 14.8741ZM4.71204 2.06441H25.2848C26.0339 2.0668 26.7518 2.39382 27.2815 2.97403C27.8113 3.55424 28.1098 4.34048 28.112 5.16102V8.88727V16.9797V17.1243H1.88482V5.16102C1.887 4.34048 2.18557 3.55424 2.71531 2.97403C3.24504 2.39382 3.96288 2.0668 4.71204 2.06441ZM8.82094 31.8125C8.20398 31.8125 7.60088 31.6121 7.08791 31.2367C6.57493 30.8613 6.17511 30.3277 5.93901 29.7034C5.70292 29.0791 5.64114 28.3921 5.7615 27.7294C5.88187 27.0666 6.17896 26.4578 6.61521 25.98C7.05146 25.5022 7.60728 25.1768 8.21238 25.045C8.81748 24.9131 9.44467 24.9808 10.0147 25.2394C10.5847 25.498 11.0718 25.9359 11.4146 26.4978C11.7574 27.0596 11.9403 27.7202 11.9403 28.3959C11.9393 29.3017 11.6104 30.1701 11.0256 30.8106C10.4408 31.4511 9.64794 31.8114 8.82094 31.8125ZM8.82094 22.9046C7.67507 22.9063 6.56422 23.3373 5.67281 24.1259C4.78139 24.9145 4.16304 26.0133 3.92042 27.2398H1.88482V19.1887H28.112V27.2398H13.7215C13.4801 26.0125 12.8622 24.9128 11.9704 24.124C11.0787 23.3351 9.96717 22.9048 8.82094 22.9046ZM36.245 31.8125C35.628 31.8125 35.0249 31.6121 34.512 31.2367C33.999 30.8613 33.5992 30.3277 33.3631 29.7034C33.127 29.0791 33.0652 28.3921 33.1856 27.7294C33.3059 27.0666 33.603 26.4578 34.0393 25.98C34.4755 25.5022 35.0313 25.1768 35.6364 25.045C36.2415 24.9131 36.8687 24.9808 37.4387 25.2394C38.0087 25.498 38.4959 25.9359 38.8387 26.4978C39.1814 27.0596 39.3644 27.7202 39.3644 28.3959C39.3634 29.3017 39.0344 30.1701 38.4496 30.8106C37.8649 31.4511 37.072 31.8114 36.245 31.8125ZM43.1246 27.2398H41.1455C40.9044 26.0124 40.2865 24.9126 39.3947 24.1237C38.503 23.3347 37.3913 22.9044 36.245 22.9044C35.0987 22.9044 33.987 23.3347 33.0953 24.1237C32.2035 24.9126 31.5856 26.0124 31.3445 27.2398H29.9968V16.9797V7.85507H32.8429C33.2824 7.85728 33.7197 7.92323 34.1434 8.05119V14.8741C34.1449 15.4211 34.3439 15.9452 34.6971 16.332C35.0502 16.7188 35.5288 16.9369 36.0282 16.9385H42.8513C43.0326 17.4915 43.125 18.0747 43.1246 18.6622V27.2398Z" fill="#9e9e9e"/>
<path d="M8.82097 25.4545C8.29162 25.4545 7.77416 25.6265 7.33402 25.9486C6.89388 26.2707 6.55084 26.7285 6.34826 27.2642C6.14569 27.7998 6.09269 28.3893 6.19596 28.9579C6.29923 29.5266 6.55414 30.0489 6.92844 30.4589C7.30275 30.8688 7.77964 31.148 8.29882 31.2611C8.818 31.3742 9.35614 31.3162 9.8452 31.0943C10.3343 30.8724 10.7523 30.4967 11.0463 30.0146C11.3404 29.5326 11.4974 28.9658 11.4974 28.386C11.4963 27.6089 11.2139 26.864 10.7123 26.3145C10.2106 25.765 9.53046 25.4558 8.82097 25.4545ZM8.82097 29.2634C8.6644 29.2634 8.51135 29.2125 8.38117 29.1173C8.25099 29.022 8.14952 28.8866 8.08961 28.7281C8.02969 28.5697 8.01401 28.3954 8.04456 28.2272C8.0751 28.059 8.1505 27.9045 8.26121 27.7832C8.37192 27.662 8.51297 27.5794 8.66653 27.5459C8.82009 27.5125 8.97926 27.5297 9.12391 27.5953C9.26856 27.6609 9.3922 27.772 9.47918 27.9146C9.56616 28.0572 9.61259 28.2248 9.61259 28.3963C9.61133 28.6259 9.52752 28.8456 9.37934 29.0079C9.23115 29.1702 9.03053 29.262 8.82097 29.2634ZM36.245 25.4545C35.7157 25.4545 35.1982 25.6265 34.7581 25.9486C34.3179 26.2707 33.9749 26.7285 33.7723 27.2642C33.5698 27.7998 33.5168 28.3893 33.62 28.9579C33.7233 29.5266 33.9782 30.0489 34.3525 30.4589C34.7268 30.8688 35.2037 31.148 35.7229 31.2611C36.2421 31.3742 36.7802 31.3162 37.2693 31.0943C37.7583 30.8724 38.1763 30.4967 38.4704 30.0146C38.7645 29.5326 38.9215 28.9658 38.9215 28.386C38.9203 27.6089 38.638 26.864 38.1363 26.3145C37.6346 25.765 36.9545 25.4558 36.245 25.4545ZM36.245 29.2634C36.0885 29.2634 35.9354 29.2125 35.8052 29.1173C35.675 29.022 35.5736 28.8866 35.5137 28.7281C35.4538 28.5697 35.4381 28.3954 35.4686 28.2272C35.4992 28.059 35.5746 27.9045 35.6853 27.7832C35.796 27.662 35.937 27.5794 36.0906 27.5459C36.2442 27.5125 36.4033 27.5297 36.548 27.5953C36.6926 27.6609 36.8163 27.772 36.9032 27.9146C36.9902 28.0572 37.0367 28.2248 37.0367 28.3963C37.0354 28.6259 36.9516 28.8456 36.8034 29.0079C36.6552 29.1702 36.4546 29.262 36.245 29.2634ZM13.0147 12.4385C13.1019 12.536 13.206 12.6136 13.3209 12.6668C13.4357 12.72 13.5591 12.7476 13.6838 12.7481C13.9336 12.7461 14.1732 12.6389 14.3529 12.4488L18.8859 7.48388C19.0621 7.29088 19.1611 7.02912 19.1611 6.75618C19.1611 6.48324 19.0621 6.22148 18.8859 6.02848C18.7097 5.83548 18.4707 5.72705 18.2215 5.72705C17.9723 5.72705 17.7333 5.83548 17.5571 6.02848L13.6932 10.2605L11.8178 8.16514C11.6429 7.97077 11.4046 7.86049 11.1554 7.85855C10.9062 7.85662 10.6665 7.96318 10.489 8.15481C10.3116 8.34644 10.2109 8.60744 10.2091 8.88038C10.2073 9.15332 10.3046 9.41585 10.4796 9.61022L13.0147 12.4385Z" fill="#9e9e9e"/>
</svg>
