<svg width="30" height="23" viewBox="0 0 30 23" fill="none" xmlns="http://www.w3.org/2000/svg">
<path d="M27.0706 0.0294118L14.9941 0.0588235L2.91765 0H2.91176C1.28824 0 0 1.52353 0 3.42941V19.3941C0 21.3 1.28824 22.8235 2.91176 22.8235H27.0882C28.7118 22.8235 30 21.3 30 19.3941V3.42941C30 1.52353 28.7235 0.0294118 27.0706 0.0294118V0.0294118ZM26.1235 2.38235L15.3353 12.2471L15.2941 12.2824L15.2588 12.3235C15.1294 12.4647 14.9765 12.4824 14.8941 12.4824C14.8118 12.4824 14.6588 12.4588 14.5353 12.3118L14.5 12.2706L4.18824 2.33529L14.9941 2.40588L26.1235 2.38235V2.38235ZM27.0882 20.4706H2.91176C2.70588 20.4706 2.35294 20.0824 2.35294 19.3941V3.80588L12.8 13.9C13.3294 14.4882 14.0765 14.8294 14.8706 14.8412H14.9059C15.6882 14.8412 16.4176 14.5176 16.9529 13.9529L27.6588 4.15294V19.3941C27.6471 20.0824 27.2941 20.4706 27.0882 20.4706V20.4706Z" fill="#FFB500"/>
</svg>
