<svg width="40" height="37" viewBox="0 0 40 37" fill="none" xmlns="http://www.w3.org/2000/svg">
<path d="M24.5609 5.5294C25.0666 5.5294 25.4785 5.87453 25.4785 6.29851H27.7642C27.7642 4.99857 26.9065 3.88832 25.7037 3.44834V2.85693H23.418V3.44834C22.2147 3.88832 21.357 4.99857 21.357 6.29851C21.357 7.98302 22.7941 9.35382 24.5609 9.35382C25.0666 9.35382 25.4785 9.69895 25.4785 10.1229C25.4785 10.5475 25.0671 10.8926 24.5609 10.8926C24.0546 10.8926 23.6426 10.5475 23.6426 10.1229H21.357C21.357 11.4235 22.2147 12.5337 23.418 12.9737V13.5651H25.7037V12.9737C26.9065 12.5337 27.7642 11.4235 27.7642 10.1229C27.7642 8.43843 26.3271 7.0682 24.5609 7.0682C24.0546 7.0682 23.6426 6.72307 23.6426 6.29851C23.6426 5.87453 24.054 5.5294 24.5609 5.5294V5.5294ZM30.0778 7.0722H32.5508V9.35782H30.0778V7.0722ZM16.5703 7.0722H19.0434V9.35782H16.5703V7.0722Z" fill="#9e9e9e"/>
<path d="M9.71505 33.7621L19.6084 36.3974C21.0141 36.7727 22.5102 36.5961 23.7899 35.9038L38.2797 28.0846C38.946 27.7234 39.4666 27.1426 39.7531 26.4409C40.0395 25.7392 40.0741 24.96 39.851 24.2356C39.5905 23.3928 39.0156 22.7054 38.2334 22.2986C37.4511 21.8917 36.5574 21.8186 35.7175 22.09L26.391 25.107C26.0188 24.7441 25.5693 24.4703 25.0762 24.3059L17.0633 21.6346C15.92 21.2535 14.7931 21.2243 13.7035 21.1958L9.71505 21.166V19.4472H0V35.4466H9.71505V33.7621ZM13.2332 23.4688L13.6435 23.4802C14.6503 23.5065 15.5194 23.5294 16.3405 23.8031L24.3533 26.4744C24.6378 26.5683 24.8747 26.7689 25.0143 27.0339C25.1539 27.2989 25.1853 27.6078 25.1019 27.8955C25.0195 28.187 24.8259 28.4345 24.5627 28.5847C24.2996 28.7349 23.988 28.7757 23.6951 28.6983L14.5549 26.3298L13.9817 28.5423L23.122 30.9102C23.4093 30.9849 23.705 31.0227 24.0019 31.0228C24.7482 31.0226 25.474 30.7788 26.0689 30.3282C26.6639 29.8777 27.0954 29.2452 27.2978 28.5269C27.4281 28.0755 27.4612 27.6184 27.4115 27.1789L36.4214 24.2642C36.5457 24.2236 36.6769 24.2083 36.8072 24.2191C36.9375 24.2299 37.0643 24.2666 37.1803 24.3271C37.4163 24.4499 37.5894 24.6573 37.6682 24.911C37.7355 25.1296 37.725 25.3646 37.6385 25.5763C37.5521 25.788 37.395 25.9632 37.194 26.0721L22.7043 33.8924C21.9368 34.3084 21.0391 34.4145 20.1958 34.189L9.71505 31.3971V23.4494L13.2332 23.4688ZM7.42943 33.161H2.28563V21.7329H7.42943V33.161ZM12.0087 15.1615C12.0087 16.2661 12.9042 17.1616 14.0088 17.1615L35.1506 17.1606C36.2552 17.1605 37.1506 16.2651 37.1506 15.1606V2.0405C37.1506 0.9373 36.2573 0.0424348 35.1541 0.0405042L14.0122 0.00350611C12.9062 0.00157074 12.0087 0.897567 12.0087 2.0035V15.1615ZM14.2943 2.28963L34.8649 2.32562V14.8749L14.2943 14.876V2.28963Z" fill="#9e9e9e"/>
</svg>
