<svg width="91" height="81" viewBox="0 0 91 81" fill="none" xmlns="http://www.w3.org/2000/svg">
<path d="M73.7651 8.44913C67.464 8.74421 59.8547 10.3039 54.3412 12.4257C42.9766 16.8239 35.7331 23.8919 31.1057 35.1191C29.4319 39.18 27.8988 45.2362 27.28 50.3229C27.1674 51.2222 27.0408 51.981 27.0127 52.0091C26.9846 52.0372 23.3277 52.3183 18.8971 52.6274C14.4526 52.9225 10.6831 53.2035 10.5143 53.2457C10.3315 53.2878 9.97986 53.5126 9.69856 53.7515C8.7562 54.5806 8.74213 55.9857 9.67043 56.7867C9.9658 57.0396 12.9335 58.3605 17.8141 60.412L25.5077 63.6439L28.8271 71.4425C30.8947 76.2763 32.3012 79.3957 32.5262 79.6346C33.2295 80.3653 34.4954 80.4777 35.283 79.8594C36.0566 79.2552 36.0566 79.2411 36.6473 70.5573C36.9567 66.0607 37.224 62.309 37.2662 62.2246C37.2943 62.1403 37.7725 62.0279 38.3492 61.9717C41.3169 61.6766 45.86 60.7492 49.3622 59.7094C65.3542 54.9881 74.8622 44.7444 78.9692 27.8404C80.01 23.5406 80.5445 19.7466 80.8118 14.6459C81.0087 10.8098 80.9243 10.3039 79.9819 9.33438C79.56 8.89878 79.1239 8.6037 78.7583 8.50534C78.2378 8.36482 76.0718 8.33672 73.7651 8.44913ZM76.6626 13.4375C76.6204 13.9293 76.55 15.0534 76.5078 15.9386C76.4094 17.9902 75.9734 21.5031 75.5092 23.9481C75.1576 25.8029 74.2715 29.386 74.1168 29.5406C74.0042 29.6671 71.3881 28.4867 70.0801 27.7279C65.523 25.03 61.9223 20.8567 59.9391 15.9667L59.5734 15.0955L60.3048 14.8988C63.2163 14.0838 65.6918 13.578 68.5611 13.1845C70.8115 12.8894 74.0746 12.6084 75.5655 12.5803L76.7329 12.5663L76.6626 13.4375ZM56.1697 17.8356C58.9405 24.5523 64.44 30.1308 70.9943 32.8708C71.8523 33.2362 72.6118 33.5734 72.6681 33.6296C72.7243 33.6718 72.4993 34.3603 72.1617 35.1331C69.5456 41.2877 65.4386 46.4587 60.4033 49.9576C54.285 54.2152 45.86 57.0115 36.3519 57.953C34.3688 58.1497 33.8624 58.3745 33.4405 59.2317C33.1732 59.7797 33.1029 60.3979 32.8357 64.487C32.6669 67.0303 32.5122 69.138 32.4981 69.1661C32.47 69.1802 31.6401 67.2832 30.6415 64.9507C29.1084 61.3534 28.7568 60.6509 28.3911 60.412C28.1661 60.2574 26.2391 59.4003 24.1434 58.515C22.0337 57.6298 20.3177 56.871 20.3177 56.8288C20.3177 56.7867 22.3853 56.604 24.9029 56.4354C28.3067 56.2106 29.6148 56.07 29.9664 55.9014C30.7822 55.508 31.0213 54.9319 31.2322 52.8522C32.048 44.9412 33.9749 38.1402 36.9989 32.5055C40.7965 25.4375 46.1131 20.6038 53.9333 17.119C54.6647 16.7817 55.3539 16.5288 55.4524 16.5429C55.5508 16.5569 55.8743 17.133 56.1697 17.8356Z" fill="#FFB500"/>
<path d="M66.2423 16.6493C65.5896 16.9963 65.0897 17.9401 65.1869 18.6757C65.298 19.5917 66.0479 20.369 66.9643 20.5078C67.7003 20.6327 68.6029 20.1608 68.9917 19.4668C70.0193 17.6486 68.0891 15.6777 66.2423 16.6493Z" fill="#FFB500"/>
</svg>
