<svg width="54" height="36" viewBox="0 0 54 36" fill="none" xmlns="http://www.w3.org/2000/svg">
<circle cx="43.4543" cy="5.11444" r="4.11444" stroke="#9e9e9e" stroke-width="2"/>
<path d="M34.6904 20.0889C34.6904 16.2229 37.8244 13.0889 41.6904 13.0889H45.0037C48.8697 13.0889 52.0037 16.2229 52.0037 20.0889V23.1075C52.0037 23.6597 51.556 24.1075 51.0037 24.1075H35.6904C35.1381 24.1075 34.6904 23.6597 34.6904 23.1075V20.0889Z" stroke="#9e9e9e" stroke-width="2"/>
<circle cx="10.1408" cy="5.11444" r="4.11444" stroke="#9e9e9e" stroke-width="2"/>
<path d="M1.37695 20.0889C1.37695 16.2229 4.51096 13.0889 8.37695 13.0889H11.6902C15.5562 13.0889 18.6902 16.2229 18.6902 20.0889V23.1075C18.6902 23.6597 18.2425 24.1075 17.6902 24.1075H2.37695C1.82467 24.1075 1.37695 23.6597 1.37695 23.1075V20.0889Z" stroke="#9e9e9e" stroke-width="2"/>
<circle cx="26.8959" cy="15.0697" r="4.2963" stroke="#9e9e9e" stroke-width="2"/>
<path d="M24.7852 23.292H29.0074C32.8734 23.292 36.0074 26.426 36.0074 30.292V33.7735C36.0074 34.3258 35.5597 34.7735 35.0074 34.7735H18.7852C18.2329 34.7735 17.7852 34.3258 17.7852 33.7735V30.292C17.7852 26.426 20.9192 23.292 24.7852 23.292Z" stroke="#9e9e9e" stroke-width="2"/>
</svg>
