<svg width="91" height="81" viewBox="0 0 91 81" fill="none" xmlns="http://www.w3.org/2000/svg">
<g clip-path="url(#clip0_1048_1449)">
<path d="M51.9469 5.28106C50.1891 5.74513 49.1344 6.34981 47.8125 7.67169C46.0688 9.41544 45.2391 11.2858 45.225 13.5076L45.211 14.6326L46.3219 16.4326L47.4188 18.2467L47.3344 19.3858C46.9266 24.1108 44.8031 28.7092 41.4563 32.1123C40.0641 33.5326 39.0938 34.2779 35.311 36.8514C33.736 37.9201 31.8656 39.2701 31.1766 39.8608C27.9563 42.5608 25.2281 46.6108 23.85 50.717C22.8516 53.7264 22.5 56.3701 22.5 61.067V63.767L18.2391 63.8092L13.9641 63.8514L12.7688 64.442C8.00158 66.8045 7.73439 73.3858 12.2906 76.0717C13.9641 77.0701 11.925 77.0139 43.9735 76.9717L72.8297 76.9295L73.2094 76.6342C74.1516 75.9451 74.1797 75.8326 74.2219 72.8795C74.25 71.2904 74.2078 69.8139 74.1094 69.2654C73.7578 67.2686 72.3797 65.3842 70.6219 64.4983L69.75 64.0623V57.2983C69.75 50.9139 69.7641 50.5061 70.0172 50.0842C70.5235 49.2404 71.2828 47.1029 71.5078 45.8514C71.6906 44.9092 71.7328 44.1076 71.6766 42.7576C71.6063 40.5358 71.2547 39.1014 70.3547 37.1748C69.7781 35.9514 69.7219 35.7264 69.7922 35.1076C69.9047 34.1936 70.425 33.1811 71.1844 32.4779C71.5078 32.1545 73.0547 31.142 74.6016 30.2279C78.4547 27.9217 79.5797 26.7826 80.55 24.0967L80.9297 23.0701V18.1201C80.9297 13.3529 80.9156 13.1701 80.6344 12.7904C79.9313 11.8342 79.875 11.8201 76.3875 11.7498C74.0531 11.6936 73.0969 11.6233 72.8438 11.4826C72.6469 11.3842 71.1281 9.94981 69.4688 8.29044C67.8094 6.64513 66.2625 5.22481 66.0516 5.1545C65.7985 5.05606 63.436 4.99981 59.3016 5.01388C53.5641 5.01388 52.8469 5.042 51.9469 5.28106ZM67.275 12.017C70.9875 15.6873 71.536 15.9686 74.911 15.9686H76.7953L76.7531 19.2311C76.711 22.2404 76.6828 22.5639 76.4016 23.1686C75.8531 24.3779 75.0938 25.0108 71.9438 26.8951C68.3578 29.0467 67.4438 29.8623 66.5438 31.7186C65.7844 33.2514 65.5313 34.292 65.5313 35.7967C65.5313 36.9639 65.5453 37.0201 66.3047 38.5389C67.2047 40.3248 67.5 41.4639 67.5 43.3342C67.5 45.0217 67.1203 46.4701 66.2344 48.1295L65.5313 49.4373V57.917C65.5313 65.8483 65.5453 66.4248 65.7844 66.8748C66.0938 67.4514 67.05 67.9998 67.7531 67.9998C68.3156 67.9998 68.85 68.267 69.3703 68.8014C69.8906 69.3498 70.0313 69.9264 70.0313 71.4733V72.7811H65.3203H60.6094V62.192V51.617L60.2578 51.0967C59.7656 50.3795 58.8516 50.0279 58.05 50.267C57.3188 50.492 56.7422 51.0686 56.5453 51.7717C56.4469 52.1373 56.3906 54.6686 56.3906 59.1826V66.0592L55.9406 65.7498C55.0828 65.1873 53.325 64.3858 52.3969 64.1326C51.5953 63.9217 51.4547 63.8233 51.3844 63.5139C51.1594 62.5014 50.5688 60.9264 50.0906 60.1248C49.3453 58.8451 47.7 57.2139 46.336 56.4123C44.4235 55.3014 41.2735 54.4998 39.9656 54.7951C38.6438 55.0904 37.9688 56.7779 38.7141 57.8748C39.1781 58.5639 39.7125 58.817 41.1328 58.9858C42.8766 59.1967 44.3672 59.9279 45.4781 61.1233C46.7016 62.4451 47.1938 63.5561 47.3766 65.4826C47.5594 67.2826 48.0938 67.8029 49.936 67.9998C51.8906 68.1967 53.2969 68.8576 54.5203 70.1373C55.0969 70.7561 56.1094 72.3873 56.1094 72.7108C56.1094 72.7529 49.486 72.7811 41.4 72.7811H26.6906L26.761 64.5826C26.8031 57.692 26.8594 56.2014 27.0563 55.1608C27.4781 52.9811 27.9703 51.5186 28.9688 49.5076C30.8531 45.7248 32.7797 43.6858 37.6313 40.367C42.525 37.0342 43.5797 36.1904 45.3938 34.1092C47.5594 31.6342 49.275 28.6389 50.3297 25.5029L50.85 23.942L51.6656 25.3061C52.1016 26.0514 52.6219 26.7545 52.7906 26.867C53.6766 27.4436 54.7313 27.3733 55.4344 26.6983C55.6594 26.4873 57.4031 24.2233 59.3156 21.6779L62.775 17.0654L62.8172 16.2639C62.8875 15.2654 62.55 14.6608 61.6922 14.2811C60.961 13.9436 60.6938 13.9436 59.9766 14.267C59.4985 14.4779 58.9922 15.0826 56.8828 17.9092C55.4906 19.7795 54.3094 21.2842 54.2391 21.2701C54.1828 21.2561 53.0719 19.4561 51.75 17.2764L49.3735 13.2967L49.5844 12.6076C50.0063 11.1592 51.1313 9.94981 52.4813 9.48575C53.1563 9.24669 53.775 9.23263 58.8375 9.21856H64.4625L67.275 12.017ZM22.5 70.3904V72.7811H18.8438C14.7656 72.7811 14.5688 72.7529 13.8235 71.8951C12.8391 70.7701 13.1485 68.9842 14.4422 68.2951C14.9344 68.0279 15.2578 68.0139 18.7453 67.9998H22.5V70.3904Z" fill="#FFB500"/>
</g>
<defs>
<clipPath id="clip0_1048_1449">
<rect width="72" height="72" fill="white" transform="translate(9 5)"/>
</clipPath>
</defs>
</svg>
