<svg width="91" height="81" viewBox="0 0 91 81" fill="none" xmlns="http://www.w3.org/2000/svg">
<path d="M33.6334 7.32705C32.9358 7.80215 32.3886 9.05975 32.3065 10.3732C32.2518 11.2955 32.3065 11.6029 32.6895 12.7347L33.1273 14.0482L32.8947 14.8028C32.5117 16.0185 32.7853 16.9407 33.6881 17.4997C34.5498 18.0446 35.904 17.7512 36.4375 16.9128C36.5469 16.7311 36.7657 16.1303 36.9436 15.5574C37.3129 14.2998 37.2445 13.1819 36.7247 11.8684C36.328 10.8344 36.3143 10.5968 36.6016 9.8702C36.8615 9.25538 36.7931 8.44492 36.4511 7.91393C35.8766 7.01964 34.5225 6.74017 33.6334 7.32705Z" fill="#FFB500"/>
<path d="M43.9606 7.28514C43.3724 7.64845 43.1262 8.05367 42.7842 9.15757C42.4149 10.4012 42.497 11.6169 43.0167 12.9583C43.3724 13.8666 43.3861 13.9644 43.2219 14.5653C42.921 15.5993 42.921 16.1303 43.1809 16.6613C43.9469 18.1704 46.0944 18.1564 46.8331 16.6193C47.5307 15.1521 47.6264 13.7129 47.1066 12.2597C46.6142 10.8623 46.5868 10.6108 46.8467 9.89816C47.2434 8.83618 46.9425 7.84407 46.0534 7.29911C45.4789 6.93581 44.5214 6.93581 43.9606 7.28514Z" fill="#FFB500"/>
<path d="M54.1508 7.3412C53.3027 7.91411 52.6872 9.73064 52.8513 11.2398C52.8923 11.6729 53.0975 12.4554 53.289 12.9725C53.6447 13.8528 53.6583 13.9506 53.4668 14.5514C52.8923 16.5357 53.7541 17.8911 55.5049 17.7513C56.1615 17.6955 56.3256 17.6116 56.7086 17.1784C57.7756 16.0047 57.9944 13.6152 57.2284 11.7288C56.8454 10.7786 56.8454 10.7647 57.078 10.0939C57.502 8.89224 57.3242 8.10973 56.4898 7.38312C55.9153 6.89405 54.8347 6.86611 54.1508 7.3412Z" fill="#FFB500"/>
<path d="M22.0885 22.9213C21.8696 23.075 21.5961 23.2846 21.4866 23.4104C21.3909 23.5361 19.9136 27.6862 18.2038 32.6188L15.0988 41.6037L13.1701 41.6736C11.0089 41.7574 10.6943 41.8692 10.2155 42.8054C9.99669 43.2386 9.98301 43.7556 10.0104 48.8978C10.0514 54.3474 10.0651 54.5151 10.3387 54.9063C10.9131 55.6888 11.3782 55.8425 13.3342 55.8984L15.1261 55.9543L18.1901 64.9112C19.8863 69.8299 21.3772 74.0079 21.514 74.1895C21.6508 74.3712 21.9654 74.6227 22.1979 74.7625C22.6083 74.986 24.0582 75 45 75C65.9418 75 67.3917 74.986 67.8021 74.7625C68.0346 74.6227 68.3492 74.3712 68.486 74.1895C68.6228 74.0079 70.1137 69.8299 71.7962 64.9112L74.8739 55.9543L76.6658 55.8984C78.6218 55.8425 79.0869 55.6888 79.6614 54.9063C79.9349 54.5151 79.9486 54.3474 79.9896 48.8978C80.017 43.7556 80.0033 43.2386 79.7845 42.8054C79.3057 41.8692 78.9911 41.7574 76.8299 41.6736L74.9012 41.6037L71.7962 32.6188C70.0864 27.6723 68.5681 23.4942 68.4313 23.3405C67.8021 22.6279 69.0605 22.6698 44.9726 22.6698C23.4153 22.6698 22.4852 22.6838 22.0885 22.9213ZM67.9525 34.086C69.3204 38.0684 70.442 41.4081 70.442 41.4919C70.442 41.6316 65.2579 41.6736 45 41.6736C24.7421 41.6736 19.558 41.6316 19.558 41.4919C19.558 41.4081 20.6796 38.0684 22.0475 34.086L24.5369 26.8618H45H65.4631L67.9525 34.086ZM75.9134 48.8V51.7344H45H14.0866V48.8V45.8656H45H75.9134V48.8ZM34.2213 59.6852C34.2624 63.2624 34.276 63.472 34.5496 63.8493C34.7138 64.0589 35.042 64.3663 35.3019 64.52C35.7533 64.7855 36.0132 64.7995 45 64.7995C53.9868 64.7995 54.2467 64.7855 54.6981 64.52C54.958 64.3663 55.2862 64.0589 55.4504 63.8493C55.724 63.472 55.7376 63.2624 55.7787 59.6852L55.8197 55.9264H63.124C68.8964 55.9264 70.442 55.9683 70.4284 56.0941C70.4284 56.1919 69.3067 59.5455 67.9252 63.5419L65.4357 70.808H45H24.5643L22.0201 63.3602L19.4622 55.9264H26.8213H34.1803L34.2213 59.6852ZM51.7025 58.3018V60.6773H45H38.2975V58.3018V55.9264H45H51.7025V58.3018Z" fill="#FFB500"/>
</svg>
