<svg width="91" height="81" viewBox="0 0 91 81" fill="none" xmlns="http://www.w3.org/2000/svg">
<path d="M56.2625 6.0833C54.6522 6.43013 53.7916 6.87406 52.7504 7.90065C51.9314 8.71916 51.279 9.95385 51.0568 11.1192C50.9874 11.5354 50.918 13.8799 50.918 16.3493V20.8441H49.5437C43.88 20.8441 38.716 23.4383 35.5926 27.836C34.2738 29.695 11.0079 66.0559 10.647 66.8327C9.39766 69.4825 9.99457 72.7703 12.1185 74.879C14.2424 77.0016 17.5185 77.5981 20.156 76.3634C20.9473 75.9889 57.3314 52.7517 59.1916 51.4199C61.6625 49.672 63.8142 46.939 64.9386 44.1089C65.7854 42.0002 66.188 39.8361 66.188 37.4777V36.1043H70.6857C73.1566 36.1043 75.5026 36.0349 75.9191 35.9655C78.154 35.5355 80.0558 33.8569 80.7222 31.7343C81.8188 28.2245 79.5561 24.451 75.9191 23.7574C75.5026 23.688 74.517 23.6187 73.7119 23.6187H72.2543L74.642 21.2048C76.5993 19.2071 77.099 18.6244 77.4322 17.903C78.5844 15.4336 78.1124 12.6591 76.2106 10.8001C74.2949 8.91338 71.6019 8.45557 69.1309 9.60702C68.409 9.93997 67.826 10.4394 65.827 12.3955L63.4116 14.7816V13.325C63.4116 10.703 62.9119 9.2602 61.5376 7.87291C60.1494 6.49949 57.9283 5.73648 56.2625 6.0833ZM58.0671 10.4394C58.4281 10.6197 58.7473 10.9111 58.9417 11.2579C59.2332 11.7712 59.2471 11.9377 59.2471 15.9747C59.2471 19.1932 59.2887 20.2614 59.4414 20.6082C59.6774 21.2048 60.3854 21.7874 60.9823 21.8984C61.9957 22.0788 62.2594 21.8707 66.5905 17.5007C71.116 12.9504 71.2548 12.8394 72.4209 13.2001C73.0872 13.3943 73.7813 14.1435 73.8923 14.7955C74.1006 15.8498 73.9201 16.0857 69.5335 20.4418C65.1607 24.7701 64.9525 25.0337 65.133 26.0464C65.244 26.6429 65.827 27.3505 66.424 27.5863C66.771 27.7389 67.8399 27.7805 71.0605 27.7805C75.1001 27.7805 75.2666 27.7944 75.7803 28.0857C76.8353 28.6684 77.1684 30.1112 76.4744 31.0823C75.8774 31.9285 75.7525 31.9424 70.1581 31.9424C66.188 31.9424 65.0774 31.9008 65.0774 31.762C65.0774 31.443 63.7448 28.9458 63.0646 27.9747C62.19 26.7401 60.2882 24.8395 59.0527 23.9655C58.0671 23.2857 55.5823 21.9539 55.2491 21.9539C55.1103 21.9539 55.0826 20.9134 55.1103 16.7099C55.152 11.5631 55.152 11.4799 55.4574 11.0498C56.0682 10.1897 57.0676 9.95384 58.0671 10.4394ZM52.7643 25.4776C58.2754 27.1146 62.0234 32.095 62.0234 37.8245C62.0234 40.6407 61.0934 43.3598 59.4414 45.4407L58.789 46.2592L55.5823 43.0685C52.0424 39.5447 51.7648 39.3505 50.6543 39.6973C49.9602 39.9054 49.3077 40.6407 49.1828 41.3621C49.0162 42.3332 49.4049 42.8465 52.57 46.0095L55.4712 48.909L49.9741 52.4465C46.9478 54.3749 43.7273 56.4419 42.825 57.0107L41.1869 58.0651L39.4239 56.3171C37.4249 54.3749 36.9391 54.0974 35.9396 54.4026C35.2733 54.5968 34.5792 55.346 34.4681 55.998C34.3015 56.872 34.6208 57.4408 36.1062 58.9668C36.9391 59.8131 37.4527 60.4373 37.3694 60.5067C36.9946 60.8396 18.6707 72.479 18.2126 72.6732C17.4907 72.9784 16.3941 72.8536 15.5889 72.3819C14.3257 71.6466 13.7843 69.857 14.4367 68.5391C14.6172 68.1923 16.3802 65.3761 18.3653 62.2824L21.9745 56.6639L22.7936 57.4269C23.6959 58.2732 24.0429 58.4396 24.7925 58.4396C26.1668 58.4396 27.1386 56.9275 26.6249 55.5818C26.5416 55.3737 26.0141 54.7356 25.445 54.139C24.8758 53.5564 24.4038 53.0431 24.4038 52.9876C24.4038 52.8905 33.2327 39.0592 33.4548 38.8095C33.5242 38.7262 34.5098 39.6002 35.9674 41.0569C37.2722 42.3609 38.4938 43.4985 38.6604 43.5818C39.4656 43.9979 40.6733 43.5956 41.2008 42.7355C41.534 42.1945 41.5617 41.2511 41.2841 40.7101C41.173 40.502 39.8959 39.1563 38.4522 37.7135L35.8147 35.0915L37.2028 32.9551C39.0214 30.125 39.2435 29.8198 40.3262 28.7239C41.8949 27.1146 43.8939 25.9632 46.0455 25.4221C47.628 25.0198 47.6558 25.0198 49.6687 25.0753C51.1818 25.103 51.7787 25.1863 52.7643 25.4776Z" fill="#FFB500"/>
</svg>
