<svg width="91" height="81" viewBox="0 0 91 81" fill="none" xmlns="http://www.w3.org/2000/svg">
<path d="M20.0441 6.13918C18.7475 6.69505 18.3808 8.50163 19.3631 9.5161C19.8215 9.9608 25.1127 12.2121 32.8137 15.2277C40.1742 18.1043 47.1287 20.5224 52.852 22.19L54.6856 22.7319L36.2189 22.8014L17.7522 22.8709L16.9925 23.1627C14.8184 24.0105 13.3909 25.8865 13.0634 28.3046C12.8932 29.5136 13.0634 30.6392 13.6004 31.8343C14.0326 32.8071 15.3161 34.1829 16.2067 34.6276L16.8878 34.9611L16.9009 49.9002V64.8392L16.1543 65.2561C15.2375 65.7564 14.2029 66.8404 13.7314 67.7714C12.2252 70.7315 13.142 74.3585 15.8531 76.0956C17.3592 77.0684 15.0935 76.9989 46.5 76.9989C77.9065 76.9989 75.6408 77.0684 77.1469 76.0956C79.858 74.3585 80.7748 70.7315 79.2686 67.7714C78.7971 66.8404 77.7625 65.7564 76.8457 65.2561L76.0991 64.8392V49.9002L76.1122 34.9611L76.7933 34.6276C77.6839 34.1829 78.9674 32.8071 79.3996 31.8343C79.9366 30.6392 80.1068 29.5136 79.9366 28.3046C79.7008 26.5536 78.9543 25.1778 77.6708 24.1355C76.7016 23.3434 75.9158 23.0933 72.8249 22.5791C58.785 20.2444 44.4176 15.7419 24.7328 7.50107C22.7421 6.66726 20.9478 5.98632 20.7383 6.00021C20.5418 6.00021 20.2275 6.0697 20.0441 6.13918ZM75.13 27.3318C75.7979 27.846 76.0337 28.3185 76.0337 29.0967C76.0337 29.9583 75.6408 30.6531 74.9728 30.945C74.318 31.2368 18.682 31.2368 18.0272 30.945C16.9009 30.4447 16.5734 28.8187 17.3854 27.7904C18.0796 26.9149 15.971 26.9844 46.6572 27.0122L74.7764 27.04L75.13 27.3318ZM72.1701 49.9002V64.4918H46.5H20.8299V49.9002V35.3085H46.5H72.1701V49.9002ZM75.13 69.0222C75.7979 69.5363 76.0337 70.0088 76.0337 70.787C76.0337 71.6487 75.6408 72.3435 74.9728 72.6353C74.318 72.9272 18.682 72.9272 18.0272 72.6353C16.9009 72.135 16.5734 70.5091 17.3854 69.4808C18.0796 68.6053 15.971 68.6747 46.6572 68.7025L74.7764 68.7303L75.13 69.0222Z" fill="#FFB500"/>
<path d="M29.5694 39.1573C29.1698 39.2625 28.8517 39.7979 27.4082 42.8291C26.5927 44.5407 25.8505 46.128 25.7608 46.3575C25.5732 46.8643 25.6059 47.3711 25.8668 47.8014C26.1849 48.3273 28.028 49.2835 29.4145 49.6469L29.9038 49.7807L29.9609 50.6318C30.075 52.4199 30.6949 53.9689 31.8122 55.2598C32.6522 56.2351 33.2149 56.6368 34.585 57.2296C40.5874 59.8209 47.6092 60.3564 54.0031 58.6926C56.1806 58.1284 58.8393 57.1149 59.7853 56.4933C61.6447 55.2694 62.8599 53.0414 63.0393 50.5744L63.0964 49.7807L63.5857 49.6469C64.9722 49.2835 66.8153 48.3273 67.1334 47.8014C67.3699 47.4094 67.4269 46.8739 67.272 46.4531C67.1497 46.1089 64.5073 40.5247 64.1403 39.8362C63.7652 39.1286 62.9496 38.9278 62.3869 39.4059C62.0933 39.645 62.0444 39.7597 61.3838 41.7773C61.0739 42.6953 60.7803 43.5845 60.715 43.7566L60.609 44.0722L60.1115 43.6897C59.1002 42.9247 57.9422 42.5423 56.6618 42.5423C55.8136 42.5423 55.3895 42.6474 53.8237 43.1925C51.2955 44.0722 49.3382 44.3973 46.4593 44.3973C43.6049 44.3973 41.6558 44.0818 39.201 43.2403C37.4557 42.6379 37.2926 42.5996 36.3058 42.6092C35.6289 42.6092 35.1967 42.6666 34.7481 42.81C34.1283 43.0012 33.1415 43.5367 32.6929 43.9001C32.5625 44.0148 32.432 44.0626 32.3912 44.0148C32.3586 43.967 32.0405 43.0682 31.698 42.0163C30.9395 39.731 30.9069 39.645 30.6133 39.3963C30.3686 39.1955 29.8712 39.0808 29.5694 39.1573ZM30.0098 44.8372C30.1484 45.2292 30.3523 45.7934 30.4665 46.0898C30.6378 46.5488 30.6541 46.6635 30.5644 46.8069C30.4584 46.9695 30.4257 46.9695 29.7733 46.7783C29.3981 46.6731 28.9659 46.5201 28.8273 46.4531L28.5581 46.3193L29.1127 45.1527C29.4145 44.512 29.6836 44.0148 29.7162 44.0531C29.7407 44.0913 29.8793 44.4451 30.0098 44.8372ZM64.2871 46.0037L64.4421 46.3575L63.8059 46.587C63.4634 46.7209 63.023 46.8548 62.8354 46.893C62.5174 46.9504 62.4848 46.9408 62.444 46.7209C62.4114 46.5679 62.5011 46.2045 62.7131 45.5926C62.8925 45.0953 63.1046 44.5216 63.1698 44.3112L63.3085 43.9383L63.7162 44.7893C63.9446 45.2674 64.1974 45.8125 64.2871 46.0037ZM38.1571 45.8794C38.7361 46.0802 39.413 46.3002 39.674 46.3766L40.147 46.4914L40.1062 46.8356C39.935 48.1934 39.886 49.2548 39.9676 49.5513C40.2449 50.5266 41.3703 50.8517 41.9494 50.125C42.2837 49.7042 42.3245 49.5321 42.4305 48.2413L42.5366 47.0173L42.9117 47.0747C43.1156 47.1034 43.5723 47.1512 43.9311 47.1799C44.29 47.2085 44.7385 47.2564 44.9343 47.285L45.2768 47.3329V48.6333C45.2768 50.0772 45.3583 50.431 45.7906 50.7848C46.1657 51.1003 46.7937 51.129 47.1525 50.8421C47.6419 50.4597 47.7234 50.1345 47.7234 48.6429V47.3329L47.9925 47.285C48.1312 47.2564 48.5634 47.2085 48.9467 47.1799C49.33 47.1512 49.8275 47.1034 50.0559 47.0651L50.4718 47.0173L50.5778 48.1456C50.6349 48.7767 50.7409 49.4652 50.8225 49.6851C51.2139 50.7465 52.4943 50.7561 52.9837 49.6947C53.1305 49.3696 53.1305 49.2835 53.0326 48.0787C52.9755 47.3711 52.9184 46.7304 52.894 46.6539C52.8695 46.5296 53.1223 46.4149 54.1417 46.0802C54.8431 45.8412 55.5689 45.6021 55.7484 45.5352C55.9359 45.4778 56.3763 45.4204 56.7352 45.4204C58.8637 45.4013 60.609 47.4763 60.609 50.0294C60.609 51.1864 60.1849 52.3338 59.4346 53.2135C58.8393 53.9116 58.3336 54.208 56.6373 54.8678C51.9887 56.675 46.916 57.22 42.0554 56.4455C39.0868 55.977 35.1803 54.6574 34.0386 53.749C32.4809 52.5155 31.9508 50.0102 32.8153 47.9831C33.3046 46.8261 34.3974 45.8507 35.5147 45.5543C36.2242 45.3631 36.9338 45.4491 38.1571 45.8794Z" fill="#FFB500"/>
</svg>
