<svg width="91" height="81" viewBox="0 0 91 81" fill="none" xmlns="http://www.w3.org/2000/svg">
<path d="M23.9468 6.16206C23.3744 6.41168 22.9021 6.93865 22.7303 7.50723C22.6445 7.78458 22.5872 11.1128 22.5872 15.7446V23.5105L19.6391 24.9389C16.419 26.4921 15.5317 27.1439 14.8161 28.4058C13.9574 29.9313 14.0004 28.8357 14.0004 51.0657C14.0004 65.6129 14.0433 71.6176 14.1578 72.1445C14.6444 74.3772 16.4333 76.1939 18.6516 76.7625C19.9253 77.0814 38.2726 77.0814 39.5463 76.7486C41.7646 76.1939 43.5535 74.3634 44.0401 72.1445C44.2548 71.1738 44.2691 31.3181 44.0544 30.2364C43.8398 29.127 43.3389 28.184 42.4802 27.2826C41.8075 26.5614 41.4354 26.3396 38.6733 24.9944L35.625 23.5105L35.582 15.4395C35.5391 7.53496 35.5391 7.36855 35.2386 6.99412C35.0811 6.7861 34.7663 6.48102 34.5516 6.32847C34.1795 6.05112 33.9505 6.03725 29.2707 6.00951C25.4066 5.98178 24.2903 6.00951 23.9468 6.16206ZM31.3172 12.2084V14.2885H29.099H26.8807V12.2084V10.1282H29.099H31.3172V12.2084ZM31.3172 22.0544C31.3745 25.0637 31.4317 25.6462 31.6321 25.9374C31.7895 26.1593 33.1777 26.9359 35.625 28.1562C38.9452 29.8065 39.4175 30.0838 39.6465 30.5137C39.8898 30.9575 39.9041 31.5122 39.9041 38.3074V45.6295H37.7574C35.3388 45.6295 35.5964 45.7682 35.396 44.3814C35.2672 43.4662 34.5087 42.1071 33.6786 41.2889C31.6321 39.2781 28.5551 38.8343 25.9791 40.1934C24.462 40.9977 23.0023 42.8976 22.8019 44.3814C22.6015 45.7682 22.8592 45.6295 20.4405 45.6295H18.2938V38.3074C18.2938 31.5122 18.3081 30.9575 18.5514 30.5137C18.7804 30.0838 19.2384 29.8203 22.5872 28.1562C25.9218 26.4921 26.3941 26.2286 26.6231 25.7987C26.8521 25.3688 26.8807 24.9389 26.8807 21.9712C26.8807 20.1407 26.9236 18.5875 26.9809 18.532C27.0381 18.4904 28.0113 18.4627 29.1562 18.4766L31.2457 18.5182L31.3172 22.0544ZM29.9433 43.7435C30.2009 43.8545 30.6017 44.1734 30.8306 44.4646L31.2457 44.9777V51.8561C31.2457 58.5265 31.2314 58.7484 30.9594 59.2199C30.1294 60.565 28.0685 60.565 27.2385 59.2199C26.9665 58.7484 26.9522 58.5265 26.9522 51.8561V44.9777L27.3673 44.4646C28.0256 43.6187 28.9701 43.3552 29.9433 43.7435ZM22.5872 51.87V53.9501H20.4405H18.2938V51.87V49.7898H20.4405H22.5872V51.87ZM39.9041 51.87V53.9501H37.7574H35.6107V51.87V49.7898H37.7574H39.9041V51.87ZM22.6588 58.6235C22.9593 60.4957 23.5461 61.6467 24.6767 62.6868C27.1669 64.9611 31.031 64.9611 33.5212 62.6868C34.6518 61.6467 35.2386 60.4957 35.5391 58.6235L35.625 58.0966L37.7288 58.1382L39.8326 58.1798L39.8755 64.6976C39.8898 69.1491 39.8612 71.3264 39.7467 71.576C39.6608 71.784 39.4032 72.1307 39.1742 72.3387L38.7449 72.7409H29.099H19.4673L19.0809 72.3942C18.2795 71.673 18.2938 71.8256 18.2938 64.7947C18.2938 61.2168 18.3367 58.2491 18.394 58.2075C18.4369 58.152 19.4101 58.1104 20.5264 58.1104H22.5729L22.6588 58.6235Z" fill="#FFB500"/>
<path d="M57.4304 23.0254C57.1728 23.164 56.858 23.4969 56.7148 23.7465C56.4716 24.1764 56.4572 24.8975 56.4572 35.645C56.4572 48.6113 56.4 47.8624 57.6451 50.3447C58.8329 52.7161 61.2373 54.6992 63.9421 55.559L65.1157 55.9334V60.801V65.6685L60.8938 69.7595C56.3141 74.1833 56.2139 74.322 56.5145 75.4175C56.6862 76 57.2587 76.5963 57.8598 76.8182C58.1317 76.9152 61.2659 76.9707 67.291 76.9707C76.2929 76.9707 76.3072 76.9707 76.8654 76.6656C77.2232 76.4715 77.5237 76.1525 77.7098 75.7919C78.3824 74.4468 78.225 74.2249 73.4736 69.6208L69.4091 65.6547L69.4377 60.7594L69.4807 55.8641L70.4825 55.559C74.3752 54.3525 77.2089 51.1213 77.8386 47.1968C77.9387 46.5311 77.996 42.6204 77.996 35.2705C77.996 23.0808 78.0532 23.7326 77.0085 23.067L76.5219 22.748H67.2052C58.2175 22.748 57.8741 22.7619 57.4304 23.0254ZM73.7026 28.9885V31.0686L67.2338 31.0409L60.7507 30.9993L60.7077 28.9469L60.6648 26.9083H67.1908H73.7026V28.9885ZM73.7026 40.7483C73.7026 46.7114 73.6596 47.1136 72.9011 48.5558C71.1551 51.8979 66.4753 52.9241 63.3697 50.6498C62.3536 49.9148 61.3947 48.639 61.0083 47.5296C60.7936 46.9055 60.765 46.018 60.7077 41.0118L60.6648 35.2289H67.1765H73.7026V40.7483ZM68.9082 71.1463L70.6256 72.8104H67.1908H63.7561L65.4735 71.1463C66.418 70.231 67.1908 69.4821 67.1908 69.4821C67.1908 69.4821 67.9637 70.231 68.9082 71.1463Z" fill="#FFB500"/>
</svg>
