<svg width="53" height="57" viewBox="0 0 53 57" fill="none" xmlns="http://www.w3.org/2000/svg">
<path d="M32.4189 0.800747C25.0654 1.55972 18.8458 6.42799 16.5892 13.1829C15.9718 15.0478 15.8483 15.8826 15.7472 19.0595C15.6237 22.8869 15.3992 23.9277 13.9846 27.2998C13.2212 29.1213 12.9518 30.108 12.862 31.4199C12.7946 32.6234 12.9406 33.7944 13.3447 35.1822L13.6366 36.1906L10.7401 39.0638L7.84363 41.9371H6.20453C4.39703 41.9371 3.62239 42.0781 2.67934 42.566C1.85979 42.9888 1.00657 43.8671 0.568724 44.7236C0.209469 45.4392 0.198242 45.5043 0.198242 46.762C0.198242 47.998 0.220696 48.0956 0.557497 48.8004C1.25355 50.2208 2.65689 51.305 4.18372 51.5978L4.83487 51.717L4.90223 52.2266C5.07063 53.4952 6.20453 54.9589 7.52928 55.6312C9.49396 56.6287 11.7954 56.3359 13.3335 54.883C14.5123 53.7771 14.8379 52.8555 14.9277 50.4484L14.9838 48.7137L17.8579 45.9271L20.7207 43.1515L21.1248 43.2924C22.7864 43.8454 25.7839 43.9321 27.6026 43.4767C29.0846 43.0972 30.5328 42.4359 31.6892 41.6227C31.9025 41.4709 32.8118 40.6902 33.71 39.8987C36.5615 37.3724 38.0322 36.4183 40.6817 35.3882C42.6352 34.6401 43.0843 34.4124 44.4988 33.4908C48.4955 30.9103 51.2124 27.0721 52.3014 22.4749C52.5596 21.3689 52.6157 20.8593 52.6606 19.1137C52.6943 17.3572 52.6719 16.8585 52.4698 15.7091C51.1563 8.22784 45.1388 2.35122 37.4485 1.00675C36.483 0.833271 33.317 0.714005 32.4189 0.800747ZM37.2464 4.25949C41.883 5.257 45.6552 8.09773 47.7658 12.1745C48.8436 14.2563 49.2028 15.6983 49.2814 18.1921C49.3375 19.8401 49.3151 20.2521 49.1018 21.3147C48.2598 25.565 45.6889 29.0888 41.8044 31.3115C41.3778 31.55 40.2551 32.0596 39.3009 32.4283C36.3931 33.5667 34.5856 34.7052 31.9361 37.0688C29.9827 38.8145 29.3877 39.2699 28.4559 39.7144C27.2546 40.289 26.1544 40.5276 24.7286 40.5276C21.5065 40.5276 18.9019 39.0313 17.4649 36.3532C16.4433 34.4341 16.0167 32.4933 16.2973 30.9211C16.3759 30.5091 16.7689 29.3815 17.1618 28.4057C18.6437 24.806 18.9805 23.2013 19.1152 19.2221C19.1714 17.3572 19.2724 16.1428 19.3847 15.6441C20.788 9.62652 25.6604 5.14858 31.9137 4.15107C33.1149 3.95591 36.1237 4.02096 37.2464 4.25949ZM15.5788 39.6277C15.6911 39.8011 16.1851 40.3107 16.6903 40.777L17.5884 41.6227L14.7144 44.4092C13.1314 45.938 11.773 47.315 11.6944 47.4668C11.5933 47.6511 11.526 48.4209 11.4811 49.928C11.4249 52.0748 11.4249 52.1182 11.1443 52.4001C10.538 53.029 9.87566 53.1482 9.1347 52.7796C8.44987 52.4435 8.25902 52.0423 8.20288 50.7629C8.14675 49.5594 7.97835 49.1365 7.40579 48.7245C7.14757 48.5402 6.87813 48.486 5.82282 48.4426C4.87978 48.3992 4.48684 48.3342 4.25108 48.1932C3.46521 47.6945 3.24068 46.4909 3.81324 45.8296C4.31844 45.2549 4.63279 45.1898 6.822 45.1898C8.27024 45.1898 8.88771 45.1465 9.15715 45.0381C9.35923 44.9513 10.8075 43.6394 12.3792 42.1106C13.951 40.5818 15.2757 39.3349 15.3094 39.3349C15.3543 39.3349 15.4778 39.465 15.5788 39.6277Z" fill="#FFB500"/>
<path d="M33.5849 8.05219C32.8201 8.32313 32.5098 8.76748 32.5098 9.58032C32.5098 10.4582 33.0529 11.0434 33.9507 11.1301C34.9815 11.2277 35.7241 10.5666 35.7241 9.56948C35.7241 8.42067 34.6711 7.67287 33.5849 8.05219Z" fill="#FFB500"/>
<path d="M26.2147 10.5008C25.4388 10.9668 25.1839 11.9747 25.6715 12.6683C26.0595 13.2319 26.4474 13.4595 27.0016 13.4595C28.6863 13.4595 29.3403 11.4436 27.9659 10.5224C27.4893 10.2081 26.7245 10.1973 26.2147 10.5008Z" fill="#FFB500"/>
<path d="M31.1798 14.9556C30.0382 15.3999 29.7611 16.8522 30.67 17.6325C31.8005 18.5971 33.3966 17.8926 33.3966 16.4295C33.3966 15.3241 32.2217 14.5546 31.1798 14.9556Z" fill="#FFB500"/>
</svg>
