<svg xmlns="http://www.w3.org/2000/svg" enable-background="new 0 0 32 32" viewBox="0 0 32 32"><path d="M30.991,17.97c0-0.084,0.008-0.167,0.005-0.252c-0.145-5.265-4.548-9.624-9.816-9.717c-1.982-0.044-3.941,0.52-5.612,1.607c-1.362,0.885-2.891,1.16-4.194,0.752c-0.678-0.212-1.384-0.332-2.101-0.356c-2.086-0.075-4.202,0.743-5.766,2.233c-1.562,1.488-2.476,3.545-2.506,5.644c0,0.034,0.004,0.068,0.004,0.102c0,0.006-0.004,0.011-0.004,0.017v2.881c-0.045,3.123,1.748,6.007,4.568,7.348c0.139,0.066,0.285,0.097,0.429,0.097c0.374,0,0.732-0.21,0.904-0.571c0.237-0.499,0.025-1.095-0.474-1.333c-1.054-0.501-1.917-1.29-2.513-2.247C5.343,25.357,7.12,26,9,26c0.754,0,1.5-0.105,2.218-0.314c1.484-0.43,2.99-0.225,4.133,0.561C17.019,27.394,18.972,28,21,28c2.471,0,4.791-0.893,6.619-2.516c-0.262,0.385-0.553,0.753-0.885,1.094C25.215,28.14,23.179,29,21,29c-1.664,0-4.153-0.943-5.434-1.824c-0.894-0.615-1.719-0.874-2.577-0.875c-0.552,0.006-0.995,0.459-0.989,1.011c0.006,0.548,0.453,0.989,1,0.989c0.003,0,0.007,0,0.011,0c0.367,0.004,0.744,0.057,1.421,0.522C15.988,29.894,18.87,31,21,31c2.723,0,5.269-1.075,7.168-3.027c1.898-1.952,2.903-4.528,2.828-7.227V18C30.997,17.99,30.991,17.981,30.991,17.97z M21,26c-1.622,0-3.183-0.484-4.515-1.401c-1.088-0.749-2.388-1.134-3.743-1.134c-0.687,0-1.387,0.099-2.081,0.3C10.124,23.921,9.565,24,9,24c-1.619,0-3.137-0.635-4.273-1.789s-1.75-2.681-1.726-4.301c0.023-1.588,0.693-3.088,1.886-4.225c1.178-1.121,2.742-1.743,4.318-1.682c0.537,0.019,1.065,0.108,1.572,0.267c1.875,0.586,4.018,0.227,5.88-0.985c1.335-0.869,2.893-1.313,4.487-1.284c4.213,0.074,7.736,3.561,7.852,7.771c0.06,2.182-0.743,4.244-2.262,5.805C25.215,25.14,23.179,26,21,26z"/><path d="M9.858 26.939C9.575 26.979 9.287 27 9 27c-.552 0-1 .448-1 1s.448 1 1 1c.381 0 .766-.027 1.142-.082.547-.078.926-.585.848-1.132C10.912 27.24 10.407 26.866 9.858 26.939zM9.515 14.143c-.474-.284-1.088-.131-1.372.343l-3 5c-.284.474-.131 1.088.343 1.372C5.646 20.954 5.824 21 5.999 21c.34 0 .671-.173.858-.485l3-5C10.142 15.041 9.988 14.427 9.515 14.143zM14.53 13.152c-.467-.292-1.084-.15-1.378.318l-5 8c-.292.468-.15 1.085.318 1.378C8.635 22.951 8.818 23 8.999 23c.333 0 .659-.167.849-.47l5-8C15.141 14.062 14.999 13.445 14.53 13.152zM20.515 11.143c-.474-.285-1.088-.131-1.372.343l-6 10c-.284.474-.131 1.088.343 1.372C13.646 22.954 13.824 23 13.999 23c.34 0 .671-.173.858-.485l6-10C21.142 12.041 20.988 11.427 20.515 11.143zM24.515 12.143c-.475-.285-1.088-.131-1.372.343l-6 10c-.284.474-.131 1.088.343 1.372C17.646 23.954 17.824 24 17.999 24c.34 0 .671-.173.858-.485l6-10C25.142 13.041 24.988 12.427 24.515 12.143zM27.496 15.132c-.479-.274-1.09-.107-1.364.372l-4 7c-.274.479-.107 1.09.372 1.364C22.66 23.958 22.831 24 22.999 24c.347 0 .685-.181.869-.504l4-7C28.142 16.017 27.976 15.406 27.496 15.132zM9.119 8.473C9.299 8.809 9.644 9 10.001 9c.159 0 .321-.038.472-.119.487-.261.669-.867.409-1.354-.488-.909-.236-1.358.182-2.102.506-.9 1.27-2.261-.307-4.081-.362-.417-.994-.462-1.411-.101C8.928 1.606 8.883 2.237 9.244 2.655 9.9 3.412 9.777 3.631 9.319 4.446 8.839 5.302 8.112 6.596 9.119 8.473zM15.111 7.459C15.289 7.803 15.639 8 16.001 8c.154 0 .311-.036.458-.111.491-.254.683-.857.43-1.348-.367-.71-.211-.969.13-1.535.428-.711 1.146-1.901-.238-3.631-.345-.432-.976-.5-1.405-.156-.432.345-.501.974-.156 1.406.513.641.448.749.087 1.349C14.904 4.64 14.231 5.756 15.111 7.459zM21.117 6.469C21.296 6.808 21.643 7 22.001 7c.158 0 .319-.038.468-.117.488-.259.673-.865.414-1.353-.061-.113-.079-.147.148-.647.312-.688.833-1.839-.191-3.426-.299-.464-.919-.598-1.382-.297-.464.299-.597.918-.297 1.382.433.67.313.935.049 1.516C20.958 4.614 20.578 5.454 21.117 6.469z"/></svg>