<svg width="22" height="21" viewBox="0 0 22 21" fill="none" xmlns="http://www.w3.org/2000/svg">
<path fill-rule="evenodd" clip-rule="evenodd" d="M17.8 9.64985C17.8 13.8268 14.3116 17.2997 9.90001 17.2997C5.4884 17.2997 2 13.8268 2 9.64985C2 5.4729 5.4884 2 9.90001 2C14.3116 2 17.8 5.4729 17.8 9.64985ZM16.3951 16.9328C14.6567 18.4071 12.3853 19.2997 9.90001 19.2997C4.43239 19.2997 0 14.9793 0 9.64985C0 4.32039 4.43239 0 9.90001 0C15.3676 0 19.8 4.32039 19.8 9.64985C19.8 11.8455 19.0478 13.8698 17.7807 15.4913L21.6161 19.2298C22.0116 19.6153 22.0116 20.2403 21.6161 20.6258C21.2206 21.0113 20.5794 21.0113 20.1839 20.6258L16.3951 16.9328Z" fill="#ffffff"/>
</svg>
