<svg width="91" height="81" viewBox="0 0 91 81" fill="none" xmlns="http://www.w3.org/2000/svg">
<path d="M43.4887 5.07727C38.965 5.63232 35.3711 7.11709 32.013 9.82299C27.8223 13.1949 24.7695 18.801 24.3394 23.9214C24.2977 24.4487 24.2283 25.2257 24.1867 25.6143L24.1173 26.3497H23.368C22.9656 26.3497 22.133 26.4469 21.5225 26.5579C15.7221 27.668 11.1984 32.2749 10.1993 38.1308C9.26962 43.5981 11.6425 49.1625 16.2633 52.2847C17.2624 52.9646 19.3716 53.9221 20.6066 54.269C21.6473 54.5604 22.0359 54.5743 27.7113 54.6298L33.7059 54.6714L33.6781 52.3402L33.6365 50.0089L27.9472 49.9395C21.6612 49.8563 21.6751 49.8563 19.8295 48.8849C17.5399 47.6916 15.8748 45.6656 15.0977 43.1401C14.6398 41.6692 14.6398 39.338 15.0977 37.8671C16.5408 33.1491 21.2588 30.2767 25.9768 31.2203C26.3931 31.3036 26.9759 31.3313 27.2534 31.2897C27.7668 31.1926 28.5994 30.5543 28.8769 30.0408C28.9879 29.8466 29.0434 28.7087 29.0573 26.6273C29.0712 23.6716 29.0851 23.4357 29.4597 22.1174C29.8899 20.5494 30.889 18.3292 31.7632 17.0526C34.2471 13.4031 38.188 10.8082 42.5868 9.96175C43.9467 9.6981 47.277 9.72585 48.6646 10.0173C55.5612 11.4881 60.5428 16.6224 61.8194 23.5883C62.0137 24.6152 62.1386 24.9482 62.4716 25.3368C63.096 26.0445 63.554 26.211 65.1775 26.3497C67.0369 26.5024 68.0083 26.766 69.5069 27.4737C73.0176 29.1389 75.4321 32.3166 76.0982 36.1326C76.2092 36.7986 76.3063 37.7006 76.3063 38.1446C76.3063 38.5887 76.2092 39.4906 76.0982 40.1567C75.4321 43.9866 72.8927 47.2475 69.3126 48.8988C67.37 49.8008 67.1063 49.8424 62.0137 49.9257L57.3651 50.0089L57.3235 52.3402L57.2957 54.6575H61.7084C67.6197 54.6575 68.9519 54.4216 72.1434 52.7703C81.954 47.6916 84.0355 34.4119 76.2508 26.5579C73.878 24.1711 70.7003 22.4644 67.6336 21.9093C67.1063 21.826 66.579 21.7012 66.468 21.6456C66.3709 21.604 66.135 21.0212 65.9407 20.3829C64.9138 16.8028 63.1515 13.8749 60.4179 11.1551C57.0598 7.82479 52.9663 5.79884 48.3038 5.18828C46.8746 4.99401 44.5433 4.93851 43.4887 5.07727Z" fill="#FFB500"/>
<path d="M38.3961 51.1467L38.3544 61.8038L37.0084 61.8454L35.6624 61.887L35.1767 60.9435C33.914 58.5428 31.6383 57.1413 28.9879 57.1413C27.1701 57.1413 25.9628 57.5437 24.5336 58.6261C21.6889 60.8047 20.9951 64.9815 22.9933 68.0482C24.4781 70.3516 27.3088 71.6144 29.9731 71.1842C32.1517 70.8373 34.2748 69.3109 35.1629 67.4653L35.5792 66.5911H39.3674H43.1418V53.5474V40.5036H40.7828H38.4238L38.3961 51.1467ZM29.9454 62.0813C31.2081 62.7196 31.6383 64.3432 30.8612 65.5227C29.9315 66.938 27.5725 66.7993 26.8509 65.2729C26.2681 64.0656 26.726 62.7058 27.9472 62.0397C28.3496 61.8177 29.4874 61.8315 29.9454 62.0813Z" fill="#FFB500"/>
<path d="M47.8599 55.9062V71.309L51.6481 71.3229H55.4225L55.8249 72.1693C56.7269 74.0704 58.8916 75.6107 61.1118 75.9298C64.4421 76.4155 67.7724 74.334 68.7993 71.1286C69.174 69.9352 69.2572 68.9778 69.0907 67.8954C68.6467 65.1062 66.6901 62.8999 63.9703 62.0951C62.999 61.8037 61.1673 61.8037 60.1959 62.0951C58.3365 62.6363 56.6297 64.0378 55.7833 65.7307L55.3531 66.591H53.9655H52.5778V53.5472V40.5035H50.2188H47.8599V55.9062ZM62.9435 66.7437C64.8168 67.4514 64.9 70.2128 63.0822 71.0453C62.3468 71.3645 61.8195 71.3784 61.0979 71.0453C59.3356 70.2405 59.2524 67.8954 60.9591 66.8547C61.4309 66.5633 62.3329 66.5078 62.9435 66.7437Z" fill="#FFB500"/>
</svg>
